<?xml version="1.0"?>
    
<!--********* Copyright (c) 2024 Pareto Softare, LLC DBA Simplemaps.com ***************************************
************* Free for Commercial Use, full terms at  https://simplemaps.com/resources/svg-license ************
************* Attribution is appreciated! https://simplemaps.com *******************************************-->

<svg baseprofile="tiny" fill="#6f9c76" height="652" stroke="#ffffff" stroke-linecap="round" stroke-linejoin="round" stroke-width=".5" version="1.2" viewbox="0 0 1000 652" width="1000" xmlns="http://www.w3.org/2000/svg">
 <g id="features">
  <path d="M882.3 433.9l-0.9 0.9-0.5 0.4-0.2 0 0 0.2 0 0.1-0.1 0.1-0.1 0-0.1 0-0.1 0.1-0.1 0 0.1-0.6 0-0.3-0.2-0.1-0.3-0.1-0.3-0.2-0.1 0-0.4 0.1-0.1-0.1-0.1-0.1 0.3-0.1 1.2-1 0.3 0 0.3-0.1 0.1-0.1 0.2-0.1 0.3-0.1 0.1-0.2 0.1-0.1 0.6-0.2 0.3 0.7-0.3 0.9z m-54.5-50.7l1.3-0.9 0.6-0.6 0.5-0.7 0.6-0.7 0.9-0.4 0.7-0.1 1.5 0.2 0.7-0.1 2.5-2.2 1 0 0.9 0.3 0.4 0.3 0.3 0.3 1.7 0.3 6-0.4-3.3 4.6 0.2 0.3 2.1 0.3 0.4 0.2 1.5 1.5 0.4 0.3 0.6 0.1 0.9 0.2 0.6 0.3 1.1 0.8 2.4 1.4 0.8 0.2 1.2-0.3 3.4-3.2 1.7-2.6 1-0.9 4.8-2.5 4.3-1.5 1.6 2.4 1.2 2.2 0.5 0.8 0.2 0.1 0.1-1.2 0.3-0.2 0.6 0 1.4 0.7 0.7 0.3 0.6 0 0.2-0.2 0.6 0 0.9 0 2.7 1 0.6 0.3 0.5 0.5 0.4 0.8 2.2 3 0.4 0.2 0.5 0.2 1.2 0.2 1.1-0.2 1.5-0.1 2.5 0.8 3.2 0.7 0.9-0.1 0.6-0.7 0.5-0.5 0.7 0.5 1.1 1.6 0.4 0.3 0.6 0 2.7 0.9 0.8 0.6 0 0.4 0 0.4 0 0.8-0.2 1.3-0.1 1.3 0.1 0.9 0 0.2-0.2-0.1-0.5 0-0.2 0-0.2 0.2-0.1 0.1-0.1 0-0.1-0.1-0.2-0.1-0.1-0.1 0-0.3 0-0.3-0.7 0.1 0 0.2-0.1 0.2-0.1 0.1-0.3 0.2-0.2 0.2-0.3 0.2-0.3 0.4-0.5 0.4-0.4 0.3-0.3 0.2-0.2 0.2-0.3 0.1 0 0.1 0.2 0.2 0.1 0.1-0.1 0.1-0.1 0-0.3 0.2-0.4 0.2-0.1 0.3-0.2 0.3 0 0.1 0 0.2 0.2 0 0.2 0-0.4 0.2-0.5 0.7-0.2 0.9-0.1 0-0.2-0.1-0.1 0.2-0.2 0.1-0.1 0.1-0.2 0-0.1 0-0.2 0.4-0.2 0.5-0.1 0.3-0.2 0.1-0.2 0-0.1 0.2-0.1 0.1 0.1 0.2-0.1 0.1-0.1 0.1-0.2 0.2-0.2 0-0.1 0.2-0.1 0.1-0.2 0.1-0.2 0.1-0.2 0.1-0.1 0.2-0.2 0.1-0.1 0.1-0.2 0.1-0.1 0.2-0.3 0.2-0.1 0.1-0.1 0.1 0 0.1 0 0.1-0.1 0.1 0 0.1-0.2 0-0.1 0.1-0.1 0-0.1 0.1-0.2 0.1-0.3 0.2-0.3 0.2-0.3 0.2-0.3 0.3 0 0.1-0.3 0.2-0.3 1 0.4 1 1 0.7 0.8 0.4 0 0.1-0.2 0.2-0.1 0.2-0.1 0.1-0.1 0.1-0.1 0.1-0.1 0.1 0 0.1 0 0.2-0.1 0-0.2 0-0.2-0.1-0.3-0.1-0.3-0.1-0.2-0.1-0.3 0.1-0.3 0.1-0.2 0.1 0.3 0.2 0.4 0.2 0.2 0 0.2 0.1 0.3 0.2 0 0.1-0.1 0-0.6 0.2-1.1-0.1-0.1-0.2-0.1-0.1-0.1-0.2 0-0.1 0-0.1-0.1-0.1 0-0.2-0.1-0.1-0.1 0 0 0.1-0.1 0.1-0.1-0.1-0.2 0-0.2-0.1-0.2 0-0.2-0.1-0.2 0-0.1 0-0.1-0.1-0.1 0-0.1 0-0.1 0-0.1-0.1-0.3 0-0.2 0-0.2 0-0.1 0.1-0.1 0.1-0.1 0.1-0.1 0-0.1 0-0.1 0-0.1 0-0.1 0-0.2 0.1-0.1 0.1-0.2 0-0.1 0.1-0.3 0.1 0 0.2-0.3 0-1.6 1.7-1 2.2-0.4 0.6-0.2 0.1 0 0.1-0.2 0.1-0.1 0.1-0.2 0.1-0.2 0-0.3 0.1-0.1 0-0.1 0-0.2 0-0.2 0.2-0.2 0.1-0.1 0.3-0.1 0.2-0.2 0.1 0 0.3-0.1 0.2-0.4 0.2 0-0.1 0-0.1-0.1-0.3 0-0.1 0-0.3 0.1-0.1-0.1-0.2-0.1-0.3-0.1-0.1 0 0.1-0.1 0-0.1-0.1-0.2-0.1-0.1-0.1 0-0.1-0.2-0.1-0.1 0-0.2 0-0.1-0.1-0.2 0-0.2-0.1-0.1-0.1-0.2-0.1-0.2-0.1-0.1-0.1 0.1 0 0.1 0 0.1-0.2-0.2-0.1-0.1-0.1-0.1 0-0.2-0.1-0.2 0-0.1-0.1 0-0.4-0.1-0.1 0.1 0.1 0.2 0.2 0.1 0.1 0 0.2 0.4 0 0.2 0.1 0.1 0 0.2 0 0.1 0.1 0.1-0.1 0.1 0 0-0.1 0-0.1-0.1-0.2 0-0.2 0-0.1 0.1 0 0.2 0 0.2 0.2 0.2 0.1 0-0.1 0-0.1 0-0.1-0.2-0.2-0.1-0.3-0.1-0.2-0.1-0.3-0.1-0.2 0-0.1 0-0.2 0-0.1 0.2-0.3 0-0.2-0.1-0.6-0.1-0.4-0.2-0.1-0.3-0.1-0.2-0.2-0.1-0.1 0-0.1 0-0.1 0-0.3 0-0.4 0-0.1-0.2 0.1-0.1 0-0.2 0-0.2-0.1-0.4 0-0.2 0.1-0.2 0-0.1 0-0.2 0.1-0.1 0.1-0.3 0.1-0.1 0.1-0.3 0-0.3 0-0.2 0-0.1 0 0.1 0.2 0 0.2 0.1 0.1 0 0.1-0.8 0.7-0.3 1.3-0.1 1.1-0.3-0.1 0-0.1-0.1-0.2-0.1-0.1-0.2 0-0.1 0-0.1-0.1-0.1 0.1-0.1 0 0 0.1 0 0.1-0.2-0.1-0.2 0-0.2 0 0 0.1-0.1 0-0.2 0-0.1 0-0.4-0.1-0.6-0.3-0.4-0.1-0.1-0.1-0.1 0-0.2 0-0.2 0-0.4-0.1-0.1-0.1-0.2-0.2-0.1-0.1 0.2-0.1 0.1-0.1 0.1-0.2 0-0.1-0.1-0.2-0.1-0.1 0.1-0.1 0-0.1-0.1-0.2-0.1-0.2 0-0.2-0.1-0.3 0.1-0.3 0-0.3 0-0.1-0.1-0.1-0.1-0.1-0.1-0.2-0.2-0.1-0.1-0.1-0.1 0.2-0.2 0-0.2 0-0.3 0-0.2 0-0.1 0-0.2-0.1-0.2-0.1-0.3 0-0.4 0-0.1 0-0.3-0.1-0.4-0.1-0.3-0.1-0.5-0.2-0.4-0.3-0.3-0.2-0.3-0.2-0.3-0.3-0.1-0.1-0.2-0.2-0.2-0.3-0.2-0.1-0.1 0-0.2 0.1-0.1 0-0.1 0-0.3 0-0.1 0-0.3 0.1-0.1 0-0.3 0 0.2-0.1 0.4-0.2 0.1-0.2 0.1-0.2-0.3 0-0.4 0-0.1 0-0.2-0.1-0.2 0-0.1 0-0.1 0-0.1 0.2 0 0.1-0.3 0.1-0.2-0.1-0.1-0.1 0-0.1-0.1-0.1-0.2 0-0.2-0.1-0.1 0.1-0.1 0.2 0 0.2-0.1 0.2-0.2 0.1-0.1 0.1-0.2-0.1-0.2-0.1-0.3-0.3-0.2-0.2-0.1-0.2-0.1-0.2 0-0.1 0.1-0.1 0-0.2 0-0.1-0.1-0.1 0-0.1 0-0.1 0-0.1-0.1-0.1-0.2-0.2-0.3-0.1-0.1-0.1-0.2 0.1-0.1 0.1-0.2 0.1-0.1 0.1-0.3 0.2-0.1 0.1-0.2 0-0.1 0.1-0.1 0.1 0 0.1 0 0.1-0.1 0-0.3 0-0.2 0.1 0-0.1 0.1-0.1 0.1-0.1 0.2 0 0-0.2 0.1-0.1 0-0.1 0-0.1-0.1-0.1-0.1 0-0.4-0.2-0.2-0.1-0.4 0-0.2-0.1-0.4-0.1-0.4 0-0.3-0.1-0.2 0-0.3 0-0.4 0.2-0.4 0-0.4 0.3-0.3 0.1-0.1 0.1-0.2 0.1-0.1 0-0.2 0.1-0.3 0-0.2-0.1-0.3 0-0.1 0-0.3-0.1-0.2 0-0.1 0-0.2 0.1 0 0.1-0.3 0.2-0.3 0.3-0.2 0.2-0.2 0.3-0.2 0.2-0.3 0.2-0.4 0.4-0.3 0.2-0.2 0.3-0.3 0.3-0.2 0.1-0.2 0.1-0.4 0.1-0.1 0-0.2 0.1-0.2 0-0.2 0.1-0.1 0-0.2 0.1-0.1 0.1-0.1 0.1-0.2 0-0.3-0.2-0.5-0.3-0.3 0-0.2 0.1-0.3 0.1-0.1 0.1-0.3 0.1-0.2 0.1-0.4 0-0.3 0-0.4 0-0.2-0.1-0.2 0.1-0.1 0 0 0.2 0 0.3 0.1 0.3 0.1 0.5 0.1 0.1 0.3 0.3 0.2 0.2 0.1 0.3-1 1.1-1.1-0.2-4.7 0.5-7.5 2.3-2.3 0.2-2.2-0.2-2.2-1.5-0.9-2.9-0.7-3.3-1.4-2.3-1.2-0.5-1 0.1-1 0.4-1.2 0.1-1.1-0.4-2.6-1.1 0.7-2.5-0.2-0.3-0.4-0.5-0.1-0.1-0.7-1-0.1-0.2-0.1-0.3-0.1-1.5 0.9-1.3 1.6-1.1 3.6-0.8 0.5-0.2 0.5-0.7 1.3-2.2 0.7-0.7 0.8-0.4 0.8-0.2 0.8-0.4 0.6-0.5 1.9-2.4 3.2-2.6 0.8-0.8 0.8-0.5 0.4-0.3 0.9-0.2 0.2-0.2 0.1-0.4 0.1-0.3 0.9-0.5z m13.2 37.5l0.1-0.1 1.2 0.8 0.9 1.7 0.8 1.9 0.9 1.1 1.3 0.9 0 0.3-0.1 0.2 0.2 0.4 0.1 0.3 0.3 0.3 0.1 0.3 0 0.1 0.1 0.4 0 0.3 0 0.2-0.1 0.3 0.1 0.1 0 0.1 0.1 0.1 0 0.1 0.1 0.1 0.2 0.1 0.3-0.1 0.2-0.1 0.2-0.2 0.1-0.4 0.2-0.1 0.2 0 0.3 0 0.2 0 0.2-0.1 0.2 0 0.3 0 0.3 0 0.2-0.1 0.2-0.1 0.1-0.2 0.1-0.1 0.3 0 0.3-0.1 0.2-0.2 0.3-0.1 0 0.1-0.1 0.3-0.3 0.6-0.1 0.4-0.1 0.2-0.1 0.1-0.3 0.2-0.2 0.1 0 0.1-0.1 0.1-0.1 0.1-0.2 0.1-0.1 0.1-0.2 0.1-0.1 0-0.2 0-0.4 0-0.1 0-0.4 0-0.1 0-0.1 0.1 0 0.1 0.3 0.2 0.2 0.1 0.3 0.1 0.2 0.1 0.2 0.2 0 0.2-0.1 0.4-0.1 0.5 0 0.1-0.2 0.1-0.2 0.2-0.2 0-0.1 0.1-0.3 0.1-0.2 0.1-0.2 0.1-0.1 0.2 0.1 0.1 0.2 0.1 0.3-0.1 0.6 0.1 0.3 0 0.3 0 0.6 0 0.6 0.1 0.7 0.7 0.1 0.2 0.2 0.2 0.5 0.5 0 0.4-0.1 0-0.1 0 0 0.1 0 0.1-0.1 0-0.1 0-0.1 0 0.1 0.1 0.2 0.2 0.1 0.2 0 0.1-0.2 0.1-0.2 0-0.3 0-0.2 0-0.1 0-0.2 0.2 0 0.1 0.1 0.1 0.1 0.1 0 0.1-0.2 0.3-0.1 0.1-0.2 0.2-0.3 0.1-0.2 0-0.3 0-0.1 0-0.1 0.2-0.3 0.3-0.1-0.1-0.1-0.1-0.2 0-0.2 0.1-0.1 0-0.2-0.1-0.2 0-0.1 0-0.4 0.1-0.2 0.1-0.1-0.1 0-0.1-0.1-0.3 0-0.3 0.2-0.2 0.2-0.4-0.2-0.3-0.3-0.4-0.3-0.4-0.2 0.1-0.2 0-0.3 0.4 0 0.1 0 0.3 0 0.1-0.2 0.1-0.1-0.1 0-0.2-0.1-0.1-0.1 0.3 0 0.3 0 0.1-0.1 0.1 0 0.1 0 0.1 0 0.2 0.1 0.1 0.1 0.1 0 0.1-0.1 0.1 0 0.2-0.1 0-0.1-0.1-0.1-0.2 0-0.2-0.1-0.1 0-0.1-0.1-0.2-0.3 0-0.1 0-0.4 0.1-0.2 0-0.2 0-0.5-0.1-0.2 0.1-0.1 0 0.1-0.3 0.3-0.3 0-0.3 0.1-0.2 0.1-0.1 0.2-0.2 0.3-0.1 0.2-0.1 0.1-0.1-0.1-0.2 0.1-0.3 0-0.4 0.2-0.4 0.3-0.4 0.1-0.2 0.2-0.2 0.1-0.1 0.2 0 0.2 0 0.3-0.1 0.4-0.2 0.2 0 0.1-0.2 0-0.2-0.1-0.2-0.2-0.2-0.3-0.1-0.1 0-0.2-0.1-0.1-0.1-0.1-0.1 0-0.1 0-0.2-0.1-0.2-0.2-0.2 0-0.1-0.2-0.2 0-0.2 0.2-0.2 0.2-0.1 0.1-0.2 0.2 0 0.1 0.1-0.1 0.2 0.2 0.1 0.2 0.1 0.1-0.1 0.1-0.1 0.1-0.3-0.1-0.2 0-0.5-0.1-0.3-0.1-0.2-0.3-0.2-0.4 0-0.2-0.1-0.3 0-0.2 0-0.2 0-0.4 0-0.3 0-0.2 0-0.4 0-0.3 0-0.3 0-0.2-0.1-0.4-0.5-0.3-0.2-0.2-0.3-0.3-0.3-0.3-0.2-0.1-0.3 0-0.2 0-0.3 0-0.2-0.1-0.4 0-0.2 0-0.2-0.1-0.2 0-0.1-0.1-0.2 0.1-0.3 0-0.5 0-0.1 0.1-0.3 0.1-0.4 0.1-0.4 0-0.3 0.2-0.4 0-0.3 0-0.2-0.1-0.3-0.1-0.4-0.1-0.4-0.2-0.8-0.1-0.3z" id="UZFA" name="Ferghana">
  </path>
  <path d="M812 360.8l-0.7-0.8-2.4-1-1.9 0.6-1.5 7.4-3 3.4-3.8 2.4-5.5 2.2-5 3.8-9.8 3.1-1.1 0.6-1.1 0.9-2.2 2.8-1.3 1.1-1.4 0.5-1.6-0.6-0.7-0.6-0.6-0.8-0.9-1.6-0.6-0.7-1.3-0.9-0.7-0.6-2-3.2-1.2-1.1-1.7-0.2-0.9-0.5-0.6-0.7-0.7-0.6-1-0.1-1.7 0.6-0.9 0.4-0.7 0.7-1.4 1.7-0.8 1.8-0.4 2.1 0 2.6 0.4 3.7-0.2 1-0.8 0.4-3.2 0.3-1.9 1.3 0 1.4 2.1 3.7 1.1 3.9 0.5 1.2 1.4 2.5 0.6 1.4 0.3 1.5-0.3 3.4-1.8 0.3-2-0.8-1.4 0.2 0.2 2 3.9 3.5 0 1.7-2 0.9-2.6-0.1-4.8-1.4-1.8-1 0.3-0.9 0.7-2.7-0.1-1.1-0.3-0.5-0.8-2 1.1-6.3 0.2-0.5 0.3-0.7 0.3-0.5 0.7-1 0.2-0.6 0-0.7-0.2-0.6-0.1-0.5-0.4-0.5-0.5-0.5-0.1-0.6 1-0.5-0.5-0.4-0.6-0.2-0.5 0-0.6 0.1 0.6-2.6 0.5-0.9 1.3-0.6 0-0.5-0.3-0.5-0.5-0.2-0.5 0.3-0.6 0.5-0.5 0.4-0.4-0.2 0-0.6 0.9-0.8 0.2-0.6-0.3-0.6-1-0.9-0.6-1.7-1-0.1-2.2 0.5 0.9-1.5 0.1-0.7-0.5-0.3-0.8 0.3-0.7 0.5-0.7 0.2-0.9-0.5 0.7-0.9-0.1-0.9-0.6-0.9-0.7-0.6-0.4-0.2-0.3 0.1-0.4 0-0.4-0.4 0-0.3 0.1-0.8-0.1-0.3-0.5-1.1-0.3-0.4-0.6-0.5-1.4-0.7-0.4-0.3-0.4-0.5-0.6-1.2-0.4-0.6-0.8-0.6-1.2-0.5-1.2-0.2-0.8 0.3-0.2-1.2-0.2-0.5-0.2 0.1-0.4 0.3-0.3-0.2-0.2-0.5 0-1.7-0.2-0.7-0.4-0.6-2.2-2 0.2-0.2-0.1-0.3 0-0.1 0.1 0 0.1-0.1 0-0.1 0.9-0.4 0.1 0.1 0-0.1 0.3-0.2 0.1 0 0-0.1 0.1 0 0.1 0 0.1 0 0-0.1 0.1 0.1 0.1 0 0.1 0 0.1 0 0.2 0 0 0.1 0.1 0 0.1 0 0.1 0 0.1-0.1 0.1-0.1 0.1-0.1 0.1 0 0.1 0 0.1 0 0.1 0 0.1 0 0-0.1 0.1 0 0-0.1 0.1 0 0-0.1 0.1 0 0-0.1 0 0.1 0.1 0 0-0.1 0-0.1 0 0.1 0.1-0.1 0-0.1 0.1-0.1 0.1 0-0.1 0 0.1 0.1 0-0.1 0-0.1-0.1 0 0.1 0 0.1 0 0 0.1 0-0.1 0.1 0 0.1 0 0.1 0 0-0.1-0.1 0 0-0.1 0.1 0-0.1-0.1 0 0.1 0-0.1 0-0.1 0.1 0 0-0.1-0.1 0 0-0.1 0-0.1 0.1 0 0-0.1 0.1 0 0-0.1 0.1 0 0.1 0 0-0.1-0.1 0 0-0.1 0.1 0 0.1 0 0-0.1 0-0.1-0.1 0 0-0.1-0.1 0 0-0.1 0-0.1 0.1 0 0-0.1 0 0.1 0.1 0 0-0.1 0.1 0 0.1 0 0-0.1-0.2-0.1 0-0.1 0-0.1-0.1 0 0-0.1-0.1 0.1 0-0.1 0-0.1-0.2 0.3-0.1 0.3-0.3 0-0.5-0.7-0.3-0.5 0-0.1 1-2.8 0.7-0.9 0.8-0.8 1.8-0.8 1.8-0.8 0.7-1.1 0.6-1.2 0.4-0.4 0.3-0.5 0.6-0.2 0.5-0.1 1.1-0.2 1.2-0.1 0.9-0.5 1-0.5 0.9-0.6 0.9-0.6 0.5-0.5 0.4-0.4 0.2-0.4 0.2-0.4 0.5-3.4 0.4-3.4-0.1-0.5 0-0.6-0.1-0.4 0-0.3 0.1 0 0.5 0.6 0.4 0 0.2 0 0.2-0.1 0.6-0.4 0-0.1 0-0.2 0.1-0.1 0.4-0.8 0.3-0.6 0-0.4 0-0.1 0.5-1 1.9-0.9 0.6-0.5 0.5-0.6 0.1-0.1 0.2-0.9 0.2-0.6 0.2-0.5 0.3-0.2 1.2-0.7 0.5-0.1 0.5-0.2 0.3 0 0.3 0 0.2 0 0.2 0.1 0.6-0.1 0.7-0.1 0.4 0.1 0.2 0.1 0.3 0.2 0.9 0.5 0.2 0 0.3 0 0.2-0.1 1.1-0.1 0.2-0.2 0.2 0 0.2 0 0.5 0 0.1 0 0.1-0.1 0.1-0.1 0.1 0 0.1-0.1 0.2 0 0.8 0.1 1 0.2 0.7 0.1 0.5-0.3 0-0.1 0.3-0.7 0-0.1 0.1-0.2-0.4-0.3-1-0.6-0.2-0.3-0.2-0.3-0.1-0.4 0.1-0.1 0-0.1 0.1-0.2 0.1-0.1 0.6-1 1.9-1.6 0.1 0 0.1-0.1 0.2-0.1 0.1 0 0.3 0.1 1.4-0.4 0.5-0.2 0.4-0.2 0.2-0.3 0-0.1 0.5-1.4 0.1-0.2 0-0.2 0.5-0.6 1-1 0.5-0.6 0.4-0.3 0.7-0.5 0.2-0.4 0.1-0.2 0.6-0.6 0.8-0.7 0.3-0.2 0.3-0.1 1-0.1 0.1-0.1 0.3 0 1.3-0.4 0.4-0.1 0.5-0.2 0.3-0.2 0.6-0.6 0.1-0.1 2.1-0.6 3-0.1 2.9-0.1 0.4-0.2 0.2 0.3 0.2 0 0.3 0 0.3 0 1.2-0.5 0.4-0.1 0.1 0 0.9-0.5 0.1-0.1 0-0.1 0.2-0.2 1.3-3.4 1.3-0.4 1.1-0.4 0 0.7 0.1 0.2 0 0.1 0.2 0.1 0.3 0.1 0.3-0.2 0.4-0.3 0.4-1.5 0.3-0.5 0.6-0.5 2.1-1.6 1.9-0.9 0.1 0 0.6-0.4 0.7-1.2 0.5-1 0.3-1.2 0.1-0.1 0.5-0.9 0.4-0.5 0.8-0.5 0.8-1.3 0.1-0.1 0.1-0.1 0.7-0.4 0.6-0.3 0.7 0.1 0.5-0.7 1.1-0.3 0.3-0.2 0.4-0.3 0.5-0.4 0.1-0.3 0-0.4 0-0.5-0.1-0.9-0.3-0.7 0-0.3 0-0.6-0.1-0.5 0.3-0.6 1.1-0.6 0.7-0.5 0.2-0.3 0.1-0.2 2-0.9 2.6-1.1 0.4 0.1 0.4 0 0.5 0.4 0.5 0.3 0.4 0.5 0.4 0.5 0.2 0.4 0.2 0.5 0.2 0.7 0.2 0.7 0.4 0.4 0.4 0.4 0.6 0.2 0.5 0.2 0.4 0.1 0.7 0.2 1.4 1.3 0.3 0 0.2 0 0.6-0.2 0.2-0.1 0.1-0.2 0.2-0.3-0.1-0.3 0.2-0.4 1.1-3 1-2.1 0-0.3 0-0.4 0.2-0.7 0.5-0.8 0.1-0.2 0.2-0.3 0.5-0.3 0.1 0 0.4-0.4 0.2-0.2 0.6-1 0.6-0.5 0.3-0.3 0.4-0.6 0.6-1 0.6-0.6 0.4 0.2 1.2 0.3 1-0.1 1-0.2 1-0.5 1-0.5 1.8-1.5 1.8-1.5 0.7-0.6 0.5-0.5 2.3-1.7 0.4-0.1 1.3-0.1 1.7 0.7 7.4 5.3 1.7 0.6 0.2 0.1-0.8 2.6-1.9 1.4-0.1 0-0.1-0.1 0-0.1-0.1-0.1-0.2 0-0.1 0.1-0.2 0-0.2 0.1-0.2 0-0.1 0-0.2 0-0.1 0-0.2 0.2-0.2 0.1-0.2 0.2-0.2 0.2-0.1 0.1-0.2 0-0.2-0.1-0.2 0 0-0.1-0.1 0-0.1 0.1 0 0.1-0.1 0.2 0 0.1-1 0.3-7.5 5.6-2.2 0.5-0.5 0-0.2-0.2-0.4-0.2-0.4 0.1-0.2 0-0.2 0-0.2-0.2 0-0.2-0.1-0.2-0.1-0.1-0.1-0.2-0.2 0 0 0.1-0.1 0.2-0.1 0.2-0.2 0-0.1 0-0.2-0.1-0.2-0.2-0.1-0.2-0.1-0.1-0.2 0.2-0.1 0.2 0 0.3-0.1 0.2-0.1 0.2-0.1 0.2 0 0.1 0.1 0.2-0.6 0.2-0.9 2.6-0.2 4.1-0.3 0.7-0.1-0.1-0.1 0.1-0.2 0.1-0.2 0.1-0.1 0-0.1 0-0.3-0.2-0.2-0.1-0.2-0.1-0.1 0-0.3 0.1-0.1 0-0.2-0.1-0.2-0.1-0.2-0.2-0.2-0.2-0.2-0.1-0.1 0-0.1 0 0 0.1 0 0.2 0 0.2 0 0.3 0 0.2-0.1 0.2 0 0.3-0.1 0.1-0.2 0.1-0.1 0-0.2 0-0.3-0.1-0.2-0.1-0.3-0.2-0.1-0.1-0.1-0.1-0.2 0-0.2 0.1-0.1 0-0.3 0-0.2 0-0.2 0.1-0.2 0.1-0.2 0.1-0.2 0-0.2 0-0.3 0.1-0.1 0-0.2 0.1-0.2 0.2-0.1 0.1-0.1 0-0.2 0.1-0.1 0.1-0.1 0.1-0.1 0.2 0 0.1 0.1 0.1 0 0.1 0 0.1-0.1 0.1-0.1 0.1 0 0.2-0.5 0.3-5.3 4.5-2.3 2.7-1.5 3.4-1.3 1.9-1.6 1-1.7 0.9-3.2 2.5-4.3 2.5-0.2-0.2-0.2 0-0.2 0.1-0.3 0.2-0.2 0-0.1 0-0.2 0-0.3 0-0.2 0-0.2 0.1 0 0.2 0 0.4 0.1 0.2 0.1 0.2-2.3 1.4-1.2 1.8 1 2.3 0.2 0.1-0.1 0.1 0.2 0.1 0.2 0 0.1 0 0.3 0.3 0.2 0.1 0.6 0.2 0.1 0 0.5 0.1 0.1 0 0.1 0.1 0.1 0.1 0.1 0.1 0.1 0.2 0.1 0.1 0.2 0.2 0.3 0.1 0.2 0 0.3 0 0.3-0.1 0.2 0 0.2-0.2 0.1 0 0.3 0 0.2-0.1 0.2-0.1 4 0.4 0.1 0 0 0.1 1.4 0.8 0 0.2 0 0.2 0.2 0.2 0 0.2 0.2 0.1 0.1 0.1 0.1 0 0.4-0.1 0.1-0.1 0.3 0.4 0.8 1 1.3 2.4 0.8 0.8 0.9 0-0.6 1.7-0.5 0.9-2.5 3.5-0.2 0.4-0.1 0.5 0.2 0.8 0 1.1 0.2 0.4 0.1 0.2 1.5 0.2 0.2 0.6-0.2 1-0.2 0.4-1 2.2-0.1 0.4 0 0.4 0.1 0.5 0.4 0.6 1 1.4 1.1 1.9 0.2 1.5 0.1 5.2-0.3 1.6 0 0.1z m-64.4-14.4l1.7-2.1 2.6-2.5 2-1-0.5-0.5 0.4-0.7-0.6-0.8-0.7-0.5 0.8-1.4-0.2-1.1-1.9-1.3-1.7-0.2-1.2-0.9-1.8 0-2.8 2.9-0.4 2.2-1.4 3.4 0.1 0.2 0.9-0.5 0.1 0.8 0.4 0.8 1.3 1.5 0.9-0.8 0 0.2-0.3 0.7 0.7 1.2 1.6 0.4z" id="UZTO" name="Tashkent">
  </path>
  <path d="M871.5 377.7l-4.3 1.5-4.8 2.5-1 0.9-1.7 2.6-3.4 3.2-1.2 0.3-0.8-0.2-2.4-1.4-1.1-0.8-0.6-0.3-0.9-0.2-0.6-0.1-0.4-0.3-1.5-1.5-0.4-0.2-2.1-0.3-0.2-0.3 3.3-4.6-6 0.4-1.7-0.3-0.3-0.3-0.4-0.3-0.9-0.3-1 0-2.5 2.2-0.7 0.1-1.5-0.2-0.7 0.1-0.9 0.4-0.6 0.7-0.5 0.7-0.6 0.6-1.3 0.9 0.1-0.6 0.4-2.3-2-1.2-4.8-1.2-0.9-1-0.1-1.2 0.5-0.9 1.1-0.1 1.8 1.6 1.1 0.4 0.1-1.3-0.5-0.7-9.6-10.9-1.7-1.5-0.2-0.2-0.1-0.2-1-1.1 0-0.1 0.3-1.6-0.1-5.2-0.2-1.5-1.1-1.9-1-1.4-0.4-0.6-0.1-0.5 0-0.4 0.1-0.4 1-2.2 0.2-0.4 0.2-1-0.2-0.6-1.5-0.2-0.1-0.2-0.2-0.4 0-1.1-0.2-0.8 0.1-0.5 0.2-0.4 2.5-3.5 0.5-0.9 0.6-1.7 0.4 0 0.1 0 0 0.1 0 0.1 0.2 0.1 0.3 0.2 0.3 0.1 0.1-0.2 0.2-0.2 0.1 0 0.2-0.1 0.1 0.1 0.2 0.2 0.1 0 0.1 0 0.2-0.3 0.2-0.1 0.1 0 0.2-0.1 0.2-0.1 0.2-0.1 0.2 0 0.2-0.1 0.2 0.1 0.1 0 0.1-0.1 0-0.1 0.1-0.3 0-0.2 0.1-0.2 0.1-0.2 0.2-0.1 0.2-0.1 0.1 0 0.1 0 0-0.1-0.1-0.2 0-0.2 0.1-0.3 0.6-0.3 0.2 0 0.1 0 0.2-0.1 0.1-0.1 0.1-0.1 0-0.1 0.5-0.4 0.2 0.1 0.1 0 0.2-0.1 0.3-0.2 0.1-0.1 0.2-0.1 0.2 0 0.2-0.1 0.1 0.1 0.3 0.2 0.3 0 0.2 0 0.1 0 0.2-0.3 0.1-0.2 0.3-0.3 0.2-0.1 0.2-0.1 1 0.7 0.9 1.2 3 5.1 0.5 1.5 0.1 1.4-0.8 4.4 0.1 1.2 0.6 1 0.2-0.1 0 0.2 0 0.2 0 0.3 0.1 0.2 0 0.3 0 0.4 0.1 0.3 0.1 0.3 0.1 0.2 0 0.2 0 0.2 0.2 0.2 0.1 0.1 0-0.3 0-0.2 0.2-0.3 0.2-0.3 0.1-0.2 0-0.1 0-0.4 0-0.2 0.1-0.3 0.1-0.2 0.2-0.1 0.3-0.1 0.1-0.3 0.2-0.1 0.4-0.1 0.2-0.4 0.2-0.1 0.9 0.4 1 0.6 0.8 0.9 0.8 1.1 0.9 0.9 1.1 0.1 0 0.1 0 0.1 0 0.1 0 0.1 0.1 0.1 0.2 0.1 0 0.1 0 0.2 0.1 0.2 0.2 0.1 0 0.1 0.2 0.2 0.2 0.1 0.2 0.1 0.2 0.1 0.2 0.1 0.1 0.1 0.1-0.1 0-0.2 0.1 0 0.2 0 0.1 0 0.1-0.1 0.2-0.1 0.1-0.1 0.1-0.1 0-0.1 0.1-0.1 0.2-0.2 0.1 0 0.2 0 0.1 0 0.1-0.1 0.2-0.1 0.2-0.1 0.1-0.2 0.2 0 0.1 0 0.2-0.1 0.1 0 0.2-0.1 0.2 0 1 0.5 1.1 0.8 0.9 0.6 0.5 0 0 0.1 0.2 0.1 0.1 0.1 0.2 0 0.1 0 0 0.1 0.1 0.3 0.4 0.5 0.1-0.1 0.1-0.1 0.1 0 0.1 0.1 0.1 0.1 0 0.1 0.1-0.1 0.3-0.3 0.2-0.1 0.2 0.1 1.3 2.3 0.8 0.6 0.6-1.4-0.1-1.5-0.3-1.2 0.1-1 1.1-0.6 0.5 0 0.2 0.2 0.3 0.2 0.2 0.1 0.2 0 0.1-0.1 0.4 0.5 0.6 2.7 0.6 1 0.6 0.7 0.7 0 0.5-1 0.2-0.1 0.1 0 0.2-0.1 0.2-0.2 0-0.1 0.1-0.4 0-0.3 0.1-0.2 0.3-0.4 0.2 0 0.5 0.1 3.2 2.7 0.2-0.2 0.1 0.2 0.2-0.1 0.3-0.3 0.5-0.4 0.4-0.3 0.3-0.4 0.1-0.2 0.3-0.5 0.2-0.4 0.3-0.3 0.2-0.3-0.2 0 0.2-0.2-0.1-0.1-0.1-0.2-0.3-0.3-0.3-0.4-0.2-0.2-0.1-0.2 0-0.2 0-0.1 0.1-0.2 0-0.2 0.1-0.2 0.3-0.2 0.2-0.2 0.4-0.2 0.2-0.2 0.1-0.2 0-0.2 0-0.2-0.1-0.2 0-0.2 0-0.1-0.1-0.1-0.1-0.1-0.2-0.1-0.1-0.1 0-0.1 0-0.2 0-0.1-0.1-0.1-0.4-0.3-0.1-0.2 0-0.2 0-0.1-0.1-0.2 0-0.2 0-0.1 0.1-0.2 0.1-0.1 0.1-0.1 0-0.2 0-0.2 0-0.1 0-0.2 0.1-0.1 0.1 0 0-0.1-0.1-0.1-0.2-0.1 0-0.1-0.3-0.2-0.1-0.2 0-0.3 0.1-0.1 0.1-0.3 0.1-0.2 0.2-0.2 0.2-0.1 0.1-0.1 0.2-0.1 0.2-0.1 0.1-0.2 0.1-0.1 0.1-0.1 0.2 0 0.1-0.1 0.1-0.1 0.2-0.1 0.2 0 0.1 0 0.1 0.3 0.2 0.1 0.1 0.2 0 0.2 0.1 0.1 0.2 0.1 0.2 0 0.3 0.1 0.1 0 0.1-0.1 0.3-0.2 0.1-0.1 0.8 0.4 0.2-0.1 0 0.1 0.1 0.1 0.1 0 0.2 0 0.3-0.1 0.1 0 0.2 0.1 0.2 0.2 0.1 0 0.1 0.1 0.3-0.1 0.2 0 0.2-0.2 0.3-0.3 0.3-0.5 0.3-0.3 0.2-0.2 0.3-0.2 0.2-0.3 0.1-0.1 0-0.1 0.2-0.3 0.2-0.3 0.1-0.1 0-0.1 0-0.2 0-0.4 0.1-0.4 0.2-0.1 0.1 0.1 0.1 0.3 0.1 0.1 0.1 0.2 0.1 0 0.2 0 0.1-0.1 0.2-0.2 0.1-0.5 0.2-0.3 0.2-0.3 0.2-0.3 0.2-0.5 0.3-0.6 0.1-0.3 0.1-0.1-0.1-0.1 0-0.1 0-0.1 0-0.1-0.4-0.2-0.2-0.1 0-0.1 0-0.1 0.2-0.1 0.3-0.2 0.3-0.2 0.3-0.3 0.2-0.3 0.2-0.3 0-0.2 0-0.1 0-0.2 0.3 0.2 0.2-0.4-0.1 0.3 0 0.1 0.2 0.3 0.2 0.2 0.4 0.3 0.3 0.2 0.2 0.2 0.2 0.1 0.2 0 0.2-0.1 0.2-0.2 0.1-0.1-0.1-0.2-0.2-0.2-0.4-0.4-0.2-0.4-0.1-0.2 0-0.3 0-0.4 0-0.2 0-0.1 0.1 0 0.3 1.1 0.5 0.2 0.4-0.4 0-0.7 0.1 0 0.1-0.1 0-0.1 0-0.2 0.1-0.1 0.1-0.1 0.3 0.2 0.2 0.2 0.1 0.3 0.1 0.4 0 0.6 0 0.6 0.1 0.1 0.1 0.1 0.2 0 0.1-0.1 0.1-0.2 0-0.1-0.1-0.2-0.2-0.3 0.2-0.2 0.3-0.3 4.3 6.5 0.8 2.1 0.4 2.3-0.2 3 0.1 1.2 0 0.1-0.3 0.5-0.1 0.2 0 0.6 0 0.3 0 0.1 0.1 0.1 0.2 0 0.2 0.1 0.1 0 0 0.3 0 0.1 0 0.1 0.1 0 0.2 0 0 0.1 0.1 0.1 0.1 0.2 0.1 0.3 0.1 0.1 0.2 0.3 0.1 0.2 0.3 0.1 0.3 0.2 0.3 0.1 0.3 0.1 0.2 0.1 0.2 0.1 0.3 0.1 0.3 0.1 0.2 0.1 0.2 0.1 0.2 0 0.1 0.1 0.2-0.1 0.2-0.3 0.2-0.2 0.3-0.1 0.4 0 0.2 0 0.4 0 0.5 0.1 0.2 0 0.3 0 0.3 0 0.2 0.1 0.1 0.1 0 0.3 0 0.2 0.1 0.2 0.2 0.1 0.4 0.2 0.3 0.1 0.4 0.1 0.4 0.1 0.2 0.1 0.2 0.2 0.2 0.1 0.1 0.1 0.2 0.2 0.3 0.3 0.1 0.1 0.2-0.2 0.3-0.2 0.2-0.2 0.5-0.4 0.2-0.4 0-0.2 0.2-0.3 0.2-0.3 0.3-0.2 0.2-0.1 0.1 0.1 0.2 0 0.2-0.1 0.2-0.2 0.3-0.2 0.1-0.1 0.2 0 0.2 0.1 0.3 0.1 0.3-0.1 0.2 0 0.3-0.2 0.4 0.3 0.1 0 0.2 1.3 0.1 2 0.4 3.7 0 1.4-0.3 1.2-0.4 0.8-0.1-0.1-0.5-0.2-0.2 0-0.2 0-0.1 0.1 0 0.1 0.1 0.1 0.3 0.2 0.2 0.2 0.1 0.2 0.1 0.2 0.1 0.1 0.2 0.1 0.3 0.3 0.1 0.1 0.2 0 0.1-0.1 0.1-0.2 0.3-0.1-0.1 0.6-1.3 5.8-0.4 0.4-0.2 0.1-0.4 0.2-0.8 0.1-3.1 0.1-0.9 0.2-0.9-0.1-7-1.7-1.4 0.1-1.3 0-1.2 0-0.6 0.1-2.2 1.1-1.8-0.9-5.5 1.5-0.6 1-0.7 0.5-1.7 1.6-0.3 0.4 0.1 0.5 0.6 0.8 0.9 1.8-1.6 1.5z m-53.8-17.1l-0.9 0.2 0.6 1.4 0.1 0.1 0.9 0.9 1.5 2.1 0.9 0.9 1.1 0.2-0.1-1.2-0.7-1.7-0.7-1.2-1.3-1.1-1.4-0.6z m59.5-29.2l0.2-0.7 0.2-0.4 0.1 0.1 0 0.1 0 0.2 0 0.3-0.2 0.1-0.2 0.1-0.1 0.2z m-0.1-6.6l0.1 0.8 0 1.4-0.9 4 0 0.6 0-0.1-0.1-0.2 0.1-0.2 0-0.3-0.1-0.3-0.1-0.1-0.1-0.2 0-0.1 0-0.2 0-0.3-0.2-0.4-0.1-0.3-0.2-0.4-0.1-0.2-0.2-0.2-0.2 0-0.2 0-0.3 0-0.2 0.1-0.3 0.2-0.3 0.3-0.2 0-0.1 0-0.2-0.2-0.2 0-0.1-0.1-0.1-0.2 0.1 0 0.1-0.1 0.2-0.3 0.1-0.1 0.3-0.2 0.2 0 0.6 0 0.3 0 0.2 0 0.1-0.1 0.2-0.1 0.2 0 0.1-0.1 0.2-0.1 0.4-0.2 0.1-0.2 0.3-0.4 0-0.4 0-0.3-0.1-0.2 0.1-0.1 0.1-0.2 0.3-0.1 0.1-0.2 0.1 0z" id="UZNG" name="Namangan">
  </path>
  <path d="M905.3 397.9l0-0.2-0.1-0.9 0.1-1.3 0.2-1.3 0-0.8 0-0.4 0-0.4-0.8-0.6-2.7-0.9-0.6 0-0.4-0.3-1.1-1.6-0.7-0.5-0.5 0.5-0.6 0.7-0.9 0.1-3.2-0.7-2.5-0.8-1.5 0.1-1.1 0.2-1.2-0.2-0.5-0.2-0.4-0.2-2.2-3-0.4-0.8-0.5-0.5-0.6-0.3-2.7-1-0.9 0-0.6 0-0.2 0.2-0.6 0-0.7-0.3-1.4-0.7-0.6 0-0.3 0.2-0.1 1.2-0.2-0.1-0.5-0.8-1.2-2.2-1.6-2.4 1.6-1.5-0.9-1.8-0.6-0.8-0.1-0.5 0.3-0.4 1.7-1.6 0.7-0.5 0.6-1 5.5-1.5 1.8 0.9 2.2-1.1 0.6-0.1 1.2 0 1.3 0 1.4-0.1 7 1.7 0.9 0.1 0.9-0.2 3.1-0.1 0.8-0.1 0.4-0.2 0.2-0.1 0.4-0.4 1.3-5.8 0.1-0.6 0.2 0 0.2-0.1 0.2 0 0.3 0 0.2-0.1 0.2 0 0.2-0.1 0.3-0.1 0.2-0.1 0.2-0.2 0.2 0 0.2 0 0.2 0.1 0.2 0 0.2-0.1 0.2-0.1 0.2-0.1 0.4-0.3 0.3-0.4 0.1-0.1 0.2-0.2 0.2-0.2 0.3-0.1 0.2-0.1 0.2 0 0.1 0 0.1 0 0.2 0 0.2-0.1 0.2 0 0.2-0.1 0.1 0 0.2-0.2 0.1-0.2 0.1-0.3 0-0.2 0.3-0.3 0.2-0.2 0.3-0.2 0.3-0.2 0-0.1 0.2 0 0.2 0.1 0.2 0.5 0.2 0.2 0.1 0.1 0.7 1.1 1.1 0.7 1.5 0.5 2.6 0.2 0.1 0 0.1 0.1 0.3 0.1 0.1 0.3 0 0.4-0.1 0.4 0 1.6 1 0.5 1.3 0.1 1 0.4 2.3 3.6 0.2 0.1-0.1 0.2-0.1 0.1-0.1 0.2 0.1 0.2-0.1 0.2-0.2 0.2-0.2 0.2-0.1 0.1-0.1 0.2 0 0.1 0.1 0.2 0.3 0.3 0.2 0.1 0.3 0 0.2 0 0.3 0.2 0.2 0.1 0.1 0.1 0.2 0.1 0.1 0 0.1 0 0.2 0.1 0.3 0.1 0.3 0 0.2 0.1 0.2 0 0.2 0.1 0.2 0.1 0.3 0.1 0.1 0 0.2 0.1 0.2 0 0.3 0.1 0.1 0.1 0.3 0.2 0.3 0.1 0.1 0.1 0.1 0 0.4 0.1 0.2 0 0.1 0.1 0.2 0 0.2 0.1 0.2 0 0.3 0.1 0.2 0.1 0.3 0 0.2 0 0.1 0 0.1-0.1 0.3 0 0.3 0 0.2-0.1 0.2 0 0.2-0.1 0.2 0 0.2-0.1 0.2 0 0.3-0.2 0.3-0.1 0.1 0 0.2-0.1 0.2-0.1 0.2-0.2 0.3 0.1 0.2 0 0.1 0 0.2-0.2 0.2 0 0.2 0 0.1 0 0.2-0.1 0.2 0 0.3-0.1 0.3-0.1 0.2-0.1 0.1-0.1 0.3-0.1 0.2 0 0.2-0.1 0.2 0 0.2 0 0.3 0.1 0.3 0.2 0.2 1.8-0.2 1.2 0.7-0.1 0.8-0.6 0.1 0.2 0.2 0.1 0 0.2 0 0.1-0.2 0.3-0.1 0.2 0.1 0.1 0.1 0 0.3 0.1 0.1 0 0.1 0.1 0.1 0.1 0.2-0.1 0.2 0 0.2 0.1 0.2 0.1 0.3 0.1 0.3-0.1 0.4 0 0.4 0.1 0.2-0.2 0-0.4 0.1-0.4 0.1-0.2 0.2 0 0.1 0 0.3 0.1 0.2-0.3 0.1-0.2 0.1-0.1 0-0.2 0.2-0.1 0.2 0 0.3 0 0.1-0.1 0.1-0.4 0.1-0.2 0.1 0 0.2 0.2 0.1-0.2 0.3-0.2 0.2 0 0.1 0 0.2 0 0.1 0 0.1 0.3 0.1 0.1 0.2 0 0.1-0.2 0.2-0.2 0.9 0.6 3.1-0.2 1.2 0.3 0.4 0.1 0.2 1.1 0 0.1-0.2 0.2-0.2 0.4 0 0.2-1 1.5-0.2 0.1-0.3 0.1-0.3 0.2-0.3 0.2-0.5 0.3-0.1 0-0.3 0.1-0.4 0-0.3 0-0.2 0-0.3-0.1-0.1 0.2-0.1 0.2-0.2 0.1-0.2 0-0.2-0.1-0.2 0-0.2 0-0.3 0-0.4-0.1-0.2 0-0.2 0.1-0.2 0-0.2 0-0.3 0.1-0.2 0.1-0.4-0.1-0.4 0.2-0.5 0.3-0.5 0.3-0.5 0.6-0.4 0.4-0.1 0.3-0.7 0.1-0.5 0.3-0.3 0.2-0.1 0-0.3 0.1-0.3 0-0.3 0.2-0.1 0-0.5 0.2-0.3 0.2-0.4 0.2-0.3 0-0.5-0.1-0.1 0.6 0 0.3 0.3 0-0.2 0.4-0.2 0.4 0 0.1-2 0.5-0.6 0.3-0.2 0-0.1 0-0.1 0.1-0.8 0.4-0.4 0.5 0-0.4 0-0.1 0-0.2-0.1-0.4-0.2 0-0.3 0-0.1 0.1-0.2 0.1-0.1 0.3 0 0.2 0 0.2 0.4 0.4 0.2 0.2 0.4-0.3-0.9 1.4-0.2 1.7-0.2 0.3-0.1 0.3 0 0.1 0 0.1 0 0.1 0 0.3 0 0.3 0 0.2 0 0.1-0.1 1.1-0.1-0.2-0.2-0.3-0.1-0.1-0.2 0.1-0.2-0.1-0.4-0.1-0.2-0.1-0.1 0.1-0.1 0.2-0.2 0.2-0.4 0.2-0.2 0.1-0.1-0.1 0.1-0.3 0-0.3-0.1-0.2-0.2-0.4-0.2-0.2-0.1 0-0.1 0.2-0.1 0-0.2-0.1-0.3 0.2-0.5 0.4-0.3 0.3 0 0.1 0.2 0.1 0.1 0.1-0.3 0-0.4 1.2-0.1 1-0.2 1-0.5 0.9-0.6 0.5-0.3-0.1-0.3-0.1-0.4-0.1-0.1-0.1-0.1-0.1 0-0.1 0-0.2-0.1-0.1-0.2 0-0.1-0.1-0.3-0.1-0.2-0.1-0.1-0.1 0-0.1-0.1-0.1-0.1-0.1-0.1 0-0.1-0.1-0.2-0.2-0.1-0.1-0.1 0-0.2 0.1 0 0.1-0.1 0.1-0.3-0.1-0.3-0.1-0.4-0.1-0.2-0.1-0.3 0.1-0.2-0.1-0.2-0.1-0.2 0-0.1-0.2-0.2 0-0.3 0-0.1-0.1-0.2-0.1 0-0.1 0.1-0.2-0.1-0.1 0-0.2-0.1-0.1-0.1-0.2-0.2-0.3-0.2-0.3-0.1 0-0.1 0-0.1 0-0.1 0.2-0.1 0.2-0.1 0.2-0.1 0.1 0 0.1 0 0.1-0.2 0.2-0.3 0.3-0.2-0.2-0.4-0.4-0.3-0.4-0.3-0.3-0.1-0.2-0.1-0.3-0.1-0.1-0.1-0.2-0.1-0.3-0.2-0.4-0.2-0.4-0.2-0.3-0.3-0.2-0.3-0.2-0.2-0.2-0.1-0.1-0.1-0.2-0.1-0.2-0.1-0.1-0.1 0-0.2 0-0.3 0.1-0.3 0-0.1 0.1-0.2 0.2-0.1 0-0.1 0 0 0.1-0.2-0.1-1.2 0.6-0.1 0-0.2-0.1-0.2 0-0.3 0.1 0.2 0.1 0.2 0.2-0.1 1 1.1 1.9 0 1.3-0.3 1.1 0 0.8 0.4 0.6 2.3 1.7 0.3 0.6 0.3 0.8 0 0.3-0.1 0.1-0.1 0-0.1 0.1-0.1 0.1-0.1 0.3-0.1 0.2-0.1 0.2-0.1 0.1-0.1 0.2-0.2 0.7 0 0.3 0 0.2 0.2 0.4 0.2 0.3-0.6 0.7-0.1 0-0.3 0-0.2 0.1-0.2-0.1-0.2-0.1-0.3 0-0.2-0.1-0.2-0.1-0.2 0-0.1-0.1 0-0.2-0.2-0.3-0.3-0.3-0.4-0.4-0.3-0.4-0.5-0.3-0.4-0.3-0.3-0.3-0.2-0.2-0.1-0.2-0.1 0-0.1 0-0.1 0.2-0.1 0.2-0.1 0.2-0.2 0-0.2-0.1-0.1 0-0.2 0.2-0.2 0-0.2 0-0.2 0-0.1 0.1-0.1-0.2-0.1-0.2-0.1-0.2-0.1-0.3-0.1-0.2-0.2-0.2-0.1 0-0.1-0.1-0.2-0.1-0.2-0.1-0.2-0.1-0.1 0-0.1 0 0-0.2 0-0.1 0.1-0.3 0.1-0.3 0.2-0.4-0.1-0.1-0.1-0.2-0.3 0-0.4-0.1-0.6-0.1-0.3 0z" id="UZAN" name="Andijon">
  </path>
  <path d="M738.6 416.5l-1.7-0.8-1.2-0.2-8.6 1.3-1.1 0.5-1.8 1-1.3 0.2-3.1-0.5-1.1 0.1-3 0.7-0.6-1.2 0.1-0.6 0.2-0.5 0.8-2.7 0.2-0.4 0.2-0.4 0.3-0.4 0.2-0.4 0-0.2-0.2 0-15.9 3.9-12.1-0.2-1.4-0.3-0.2-0.2-0.3-0.6-0.3-0.5-0.2-1.9 0.2-1.1 0.2-1 6.2-14.4-0.1-0.9-0.5 0.1-0.9 0.3-0.9 0.1-0.3-0.3-0.1-0.3 0.3-2.6 0.1-1.7 0.1-0.3 0.2-0.2 0.3-0.2 0.7-0.1 2.9-0.5 0.8-0.8 0.1-2.8 4.1 2.2 6.2 3.2 0.1-0.1 0.1-0.2 0.3-0.3 0.1-0.2 0.4 0.2 0.1 0.1 0.1 0.1 0.2-0.4 0.1-0.1 0.1-0.2 0.1-0.1 0.1-0.1 0.2-0.1 0.1 0 0-0.1 0.5 0.1 0.4 0.1 0.3-0.1 0-0.1 0.1-0.1 0.1-0.3 0-0.1 0.1-0.2 0.9 0.5 1.1 0.5 0.7 0.1 0.7 0.1 0.3-0.2 0.2 0.1 0.3 0.1 0.3-0.2 0.2-0.1 0.1 0 0.3-0.1 0.3-0.2 0.1 0 0.2-0.1 0.2-0.3 0.3-0.3 0.2-0.2-0.1-0.3 0-0.1-0.2-0.2 0-0.1-0.3-0.1-0.2-0.1-0.2-0.1-0.4-0.1 0.1-0.2 0-0.1 0.2-0.3 0.1-0.2 0.1 0 0-0.1 0.2-0.3 0-0.1 0.2-0.2 0.1-0.1 0.2-0.2 0.1-0.2 0.1-0.1 0.1-0.3-0.2-0.3-0.1-0.2 0-0.1-0.2-0.3-0.1-0.3-0.1-0.3-0.1 0 0-0.3-0.1-0.1-0.1-0.3-0.1-0.1 0-0.2 0-0.2-0.1-0.2 0-0.4 0.2-0.3-0.2-0.2-0.1 0-0.3 0.1-0.5-0.1-0.4-0.1-0.5 0-0.3-0.2-0.1-0.4 0.1-0.2 0-0.3-0.1-0.5 0-0.5-0.2-1.2-0.1-1.1-0.1-0.2-0.1-0.9 0-0.2 0-0.1-0.1-0.7-0.1-0.6-0.1-0.9 0-0.3-0.2-1.1 0.2-0.1 0.2-0.1 0-0.1 0.1 0 0.3-0.1 0.2-0.2 0.1 0 0-0.1 0.2-0.2 0.1-0.4 0.1-0.3 0-0.2-0.2-0.3 0-0.3 0-0.1-0.1-0.3 0-0.4 0-0.2 0.1-0.3 0-0.1 0.1-0.2 0-0.1 0.2 0.1 0.4 0.1 0.3 0.3 0.1-0.4 0-0.4 0.1-0.4 0-0.1 0.1 0 0.3-0.2 0.3-0.1 0.2 0 0.2 0 0.5-0.1 0.1-0.1 0.6-0.5 2.2 2 0.4 0.6 0.2 0.7 0 1.7 0.2 0.5 0.3 0.2 0.4-0.3 0.2-0.1 0.2 0.5 0.2 1.2 0.8-0.3 1.2 0.2 1.2 0.5 0.8 0.6 0.4 0.6 0.6 1.2 0.4 0.5 0.4 0.3 1.4 0.7 0.6 0.5 0.3 0.4 0.5 1.1 0.1 0.3-0.1 0.8 0 0.3 0.4 0.4 0.4 0 0.3-0.1 0.4 0.2 0.7 0.6 0.6 0.9 0.1 0.9-0.7 0.9 0.9 0.5 0.7-0.2 0.7-0.5 0.8-0.3 0.5 0.3-0.1 0.7-0.9 1.5 2.2-0.5 1 0.1 0.6 1.7 1 0.9 0.3 0.6-0.2 0.6-0.9 0.8 0 0.6 0.4 0.2 0.5-0.4 0.6-0.5 0.5-0.3 0.5 0.2 0.3 0.5 0 0.5-1.3 0.6-0.5 0.9-0.6 2.6 0.6-0.1 0.5 0 0.6 0.2 0.5 0.4-1 0.5 0.1 0.6 0.5 0.5 0.4 0.5 0.1 0.5 0.2 0.6 0 0.7-0.2 0.6-0.7 1-0.3 0.5-0.3 0.7-0.2 0.5-1.1 6.3 0.8 2 0.3 0.5 0.1 1.1-0.7 2.7-0.3 0.9z m-20 7.3l12.4-2.4 2.5 1.8 0.3 1 0.2 1-0.1 1-0.4 0.9-1.2 0.2-3.9-0.6-1.1 0.3-1.9 1.7-0.6 0.2-1.2-2.2-0.9-0.7-0.7 1.3 0.1 0.6 1 0.8 0.2 0.5-0.1 1.4 0 0.7 0.3 0.7 4.7 6.5 0.1 1.5-2.2 0.9-1.2-1.8-0.8-3-1.1-2.4-1.1-0.8-0.4 0.6 0.2 1.3 0.5 1.5 1.2 2.5 0 1-0.7 1.3-0.2 0.1-0.5 0.1-0.2 0.1-0.4 1.1 0 0.1 0 0.3-0.1 0.7-0.3 0.4-0.7-0.3-1.5-2.3-0.8-0.7-1.8 1.6-0.6-0.2 0.1-0.7 0-1.1 0.3-0.6 0.2-0.5 0.1-0.4-0.2-0.3-0.3-0.2-0.9-0.6-0.2-0.2-0.2-0.3 0.1-0.3 0.4-0.2 0.3 0 0.3 0.2 0.2 0.2 0.2 0.3 0.2 0 0.2-0.4 0.2-2.3-0.1-0.6-0.1-0.4-0.1-0.6-0.5-1.3-0.1-0.2 0-0.1-0.2-0.4-0.2-0.6-0.1-0.4 0-0.5 0.1-0.5 0.2-0.8 0.8-1.4 2.3-3.1z" id="UZSI" name="Sirdaryo">
  </path>
  <path d="M715.6 442.1l-0.1-0.1-0.7 0-0.5 1.5-0.5 11.1-0.3 1.6-0.7 1.4-1.3 1.3-2.3 1.5-0.7 1 0.2 0.4 0.4 0.9-1.1 0.5-3.2 0.9-2.7 0.2-2.6-0.2-4.3-1.5-7.9-0.3-18.1-4.7-2.5 0-2 0.6-4.9 3.5-4.3 0.7-1 1 0.4 3.1-0.2 0.2-0.2 0.2-0.3 0.2-0.3 0-1.3-0.2-0.8 0.1-4-3.5-2.2-2-0.8-0.9-0.5-1.1 0.1-4.8 0.2-0.5 0.3-0.7 0.7-0.1 1.6-0.1 0.4-0.1 0.5-0.2 0.2-0.3 0.2-0.4 0-0.8 0-0.4-0.1-0.7-0.1-0.4-0.1-0.4 0-0.6 0-1.1 0.1-0.4 0.1-0.3 0.5-0.4 0.8-0.7 1.6-0.8 1.2-0.5 1.4-0.3 0.4 0 0.8-0.2 0.2-0.6-1.4-6.4-0.9-1.4-9.2-1.8-1.2-0.1-0.5 0.2-0.5-0.1-0.4-0.2-0.8-0.5-0.4 0-0.4 0.1-0.8 0-0.6 0-4.2-1.2-0.6-1.1-0.3 0.1-0.2 0.1-0.7 0.2-1.9-2-0.1-0.4 0-0.5 0.2-0.5-0.1-0.9-0.2-0.5-0.4-0.2-0.4-0.1-0.3 0-0.3 0.1-1 0.5-0.3 0.1-0.5 0.1-0.4-0.1-0.6-0.1-0.3-0.3-0.1-0.4-0.3-3.1 0.1-0.4 0.1-0.3 0.3-0.1 1-0.4 0.2-0.2 0.2-0.2 0.2-0.6 0.1-1.7-1.5-1.7-0.2-0.6 0.1-0.5 0.1-0.4 0-0.5-0.1-0.3-0.3-0.2-1.1-0.6-0.4-0.3-0.2-0.3-0.1-0.4-0.8-3.6-0.1-1.1-0.1-3.3 0-0.5 0.1-0.4 0.1-0.4 0.5-1.1 0.3-1 0-1-0.1-0.6-0.2-0.7-0.4-0.9-0.3-0.4-0.3-0.2-0.3 0-1.4 0.3-1.2 0.1-0.8-0.2-0.9-0.2-2.2-0.7-6.7-0.2-0.4-0.3 8.1-15.8 1.5-3.8-1.2-2.1-0.4-1.2-0.1-0.3 0-1.2 0.1-1.2 0-0.7 0-0.5-0.1-0.4-0.2-0.2-0.3-0.3-4.8-1.3-0.7-0.4-0.3-0.2-0.5-0.6-0.3-0.6-0.1-0.3-0.1-0.4-0.9-9.8 0.7-0.8 0.4-1.1 6.5-2.7 0-0.2 0.9 0.2 2.1 0.6 6.2-0.4 5.2-0.3 7.7-0.5 5.7-0.3 6.7-0.4 4.3-0.3 6.9-0.4 6.8-0.4 0.6 0.2 0.6 0.1 1.1 0.6 1.1 0.6 0.6 0.2 0.6 0.2 0.5 0 0.5-0.1 0.4-0.3 0.7-0.1 0.3-0.5 0.2-0.2 1.5-1 0.7-0.4 0.1-0.1 0.1 0 0.3-0.1 0 0.2 0 0.3 0 0.2 0 0.3 0.4 0.7 0.2 0.3 0.3 0.4 0.6 0.6 0.2 0.2 0.1 0.1 0.3 0.5 0.3 0.3 0 0.1 0.8 0.9 0.1 0.3 0.1 0.2 0 0.1 0.1 0.1 0.2 0.4 0 0.1 0.1 0.4 0.2 0.5 0 0.2 0.1 0.2 0 0.4 0.1 0.1 0 0.3 0.1 0.3 0 0.1 0.1 0.2 0 0.2 0 0.2 0.1 0.3 0 0.2 0 0.1 0.2 0.4 0.3 0.4 0.1 0 0.1 0.2 0.1-0.1 0.2-0.1 0.1 0 0-0.1 0.6-0.3 0-0.1 0.1 0 0.7-0.1 0.5 0.5 0.2 0 0.1-0.1 0.1-0.1 0.1 0 0.1-0.2 0.1-0.2 0.2-0.6 0.2-0.2 0.1 0 0.1 0 0.2-0.1 0.1 0 0.3 0.1 0.1 0.2-0.1 0.1 0.1 0.4 0 0.1 0.2 0.5 0.2 0 0 0.1 0 0.1-0.1 0.3 0 0.4-0.3-0.1-0.2-0.1-0.1 0.1 0 0.1-1.1 0.2-0.3 0.3-1.4 1.2 0.1 0.3 0.6-0.2 0.7 0.5 0 0.1 0.1 0.1-0.2 0.2-0.1 0-0.2 0.6 0.7 1.2-0.2 0.2 0 0.2-0.4 0.2 0.3 0.6-0.4 0.2-0.2-0.3 0 0.1-0.2 0.1-0.1 0.2 0 0.1-0.1 0 0 0.1 1.1 0.2 0.4 0 0.3 0.4-0.1 0-0.3 0.8-0.4 0.1-0.1 0-0.4 0 0 0.5-1 0.3-0.2 0.2-0.1 0.1-0.4 0-0.3 0.3-0.1 0.1 0 0.1-0.2 0.1-0.1 0.1-0.8 0.5 0 0.1-0.3 0.3 0.1 0.2 0 0.2-0.1 0.7 0 0.6-0.2 0.1-0.1-0.1-0.1 0.1-0.1 0-0.1-0.1-0.1 0.1-0.1 0 0 0.1-0.2-0.1 0-0.1-0.2 0-0.1 0-0.1 0-0.1 0-0.1 0-0.1 0-0.1 0 0-0.1 0 0.5 0 0.1 0 0.1 0 0.1 0.1 0.2 0 0.1 0.1 0.1 0.1 0 0 0.1 0.1 0 0 0.2 0 0.1 0 0.1-0.1 0 0 0.1-0.1 0 0 0.1 0 0.1 0 0.1 0.1 0.1 0.9 0.8-0.1 0.1 0 0.2-0.1 0.3 0.1 0.1 0.2 0.2 1.1 0.2 0.3 0.2 1.2 0.4 0.3 0 0 0.1 0.8 0.4 2.5 2.4 2.4 2.4 1.7 1.5 1.8 1.4 2.2 1.1-0.1 2.8-0.8 0.8-2.9 0.5-0.7 0.1-0.3 0.2-0.2 0.2-0.1 0.3-0.1 1.7-0.3 2.6 0.1 0.3 0.3 0.3 0.9-0.1 0.9-0.3 0.5-0.1 0.1 0.9-6.2 14.4-0.2 1-0.2 1.1 0.2 1.9 0.3 0.5 0.3 0.6 0.2 0.2 1.4 0.3 12.1 0.2 15.9-3.9 0.2 0 0 0.2-0.2 0.4-0.3 0.4-0.2 0.4-0.2 0.4-0.8 2.7-0.2 0.5-0.1 0.6 0.6 1.2-2.1 0.6-1.1 0.8 1.3 1.5 2.4 1.5 1.9 0.7 0.5-0.1-2.3 3.1-0.8 1.4-0.2 0.8-0.1 0.5 0 0.5 0.1 0.4 0.2 0.6 0.2 0.4 0 0.1 0.1 0.2 0.5 1.3 0.1 0.6 0.1 0.4 0.1 0.6-0.2 2.3-0.2 0.4-0.2 0-0.2-0.3-0.2-0.2-0.3-0.2-0.3 0-0.4 0.2-0.1 0.3 0.2 0.3 0.2 0.2 0.9 0.6 0.3 0.2 0.2 0.3-0.1 0.4-0.2 0.5-0.3 0.6 0 1.1-0.1 0.7z" id="UZJI" name="Jizzakh">
  </path>
  <path d="M651.8 467l-0.5 0.7-0.7 2.6-0.3 2.8-0.1 2.5-0.7 2.3-0.4 2.3-0.3 0.1-0.5-0.1-0.5 0.1-0.1 0.1-12.7-3.2-2.8-0.1-0.1 0.3 0.1 0.7 0 0.4 0 0.3-0.1 0.4-0.2 0.3-0.3 0.2-0.3 0.1-0.6 0.2-5.9 0.2-0.7-0.2-0.4-0.1-0.4-0.2-0.3-0.2-0.2-0.4 0-0.6 0.1-1 0.3-1.9-0.2-1-1.1-2-1.1-0.2-4.5-0.9-4.2-0.7-0.7 0-0.9 0.3-0.9 0.5-0.4 0.3-0.3 0.4-1.7 2.6-0.5 0.5-4 1.6-0.4 0.1-0.7-0.2-0.9-0.5-3.1-2.5-1.4-0.8-1 0-7.6 1.8-0.3 0-5 2.5-1.2 0.8-0.8 0.2-1.9 0-3.5-0.9-0.4-0.3-0.2-0.4-0.1-0.8-0.1-0.5 0-0.5 0.1-1 0-1.1-0.2-0.4-0.1-0.3-1.4-1.1-1.6-1-2.7-2.8-0.6-0.8-0.3-0.5-0.1-0.4-0.6-2.2-0.1-0.3-0.2-0.3-0.2-0.2-0.3-0.2-0.3-0.1-0.5-0.1-1.7 0-0.6 0.1-0.4 0.3-0.1 0.3-0.1 0.4 0.1 1 0 0.4-0.1 0.3-0.2 0.3-0.2 0.3-1.1 0.8-1.2 0.6-0.6 0.2-22.6-0.6-2.9-5.6-0.6-2.1 0-0.4 1.6-3.5 0.1-0.6 0.1-0.6 0.1-1-0.1-0.6-1.6-5.8-0.4-0.6-0.4-0.5-1.1-0.9-1.6-1.8-0.4-0.9 0.1-0.3 0.3-0.3 0.3-0.1 0.5-0.2 2.6-0.3 3.2-0.9 0.4-0.3 0.4-0.4 0.2-1.2 0.2-0.4 0.3-0.5 0.3-0.1 0.4 0 1.8 1 1.5 0.7 1.5 0.3 1.5-0.1 0.7-0.2 0.5-0.3 0.3-0.8 0.9-3.6 0.2-0.4 0.8-1.8 0.2-0.6 0.1-0.4-0.1-0.3-0.2-0.3-0.3-0.1-0.4-0.1-0.3-0.1-0.2-0.2 0-0.5 1.4-2 0.1-0.4 0.1-0.2 0.1-0.3 0.1-0.4 0.1-1.4 0-0.8 0.1-0.4 0.1-0.4 0.3-0.7 0.3-0.3 0.4-0.2 0.7 0.1 4.9 2.1 1 0.2 0.2 0.1 0.5 0.1 1.4 1.9 0.8 0.9 2.2 0.8 1 0.8 1 0.5 1.1-0.3 2.3 1.4 2.3 0.5 11.4-2.5 0.6-0.3 3.4-3.2 0.5-0.6 0.3-0.5 0-0.6-0.2-0.4-0.3-0.4-0.3-0.2-0.6-0.1-0.4 0-1 0.2-0.4 0-0.2-0.2-0.1-0.3 0.1-0.6 1.3-3.2 0.5-1.6 0.3-0.9 0.4-0.9 1.4-1.9 0.2-0.5 0.1-0.6-0.8-0.7-0.2-0.4-0.1-0.5 0-0.4 0.7-1.6 0.4-1.5-0.2-2.5-0.6-1.6 0.1-0.6 0.2-0.4 1.1-0.5 0.3-0.3 0.5-0.8 0-0.6-0.2-0.5-0.4-0.6-0.5-1.3 0-1.1 0.2-1.1 0.7-1.9 0.4-0.9 0.5-0.8 0.6-0.7 0.7-0.5 0.7-0.2 0.7 0.1 0.8 0.4 1.1 0.8 1 0.5 0.9 0.4 0.9 0.1 1-0.1 1.2-0.6 3.9-2.6 0.5-0.2 0.4 0.1 0.6 0.3 1.5 1.3 1.8 2.1 0.2 0.3 0.1 0.3-0.1 0.7-0.3 1.1 0 0.3 0.1 0.2 0.1 0.3 0.2 0.4 0.6 0.8 1 1 0.4 0.3 6.7 0.2 2.2 0.7 0.9 0.2 0.8 0.2 1.2-0.1 1.4-0.3 0.3 0 0.3 0.2 0.3 0.4 0.4 0.9 0.2 0.7 0.1 0.6 0 1-0.3 1-0.5 1.1-0.1 0.4-0.1 0.4 0 0.5 0.1 3.3 0.1 1.1 0.8 3.6 0.1 0.4 0.2 0.3 0.4 0.3 1.1 0.6 0.3 0.2 0.1 0.3 0 0.5-0.1 0.4-0.1 0.5 0.2 0.6 1.5 1.7-0.1 1.7-0.2 0.6-0.2 0.2-0.2 0.2-1 0.4-0.3 0.1-0.1 0.3-0.1 0.4 0.3 3.1 0.1 0.4 0.3 0.3 0.6 0.1 0.4 0.1 0.5-0.1 0.3-0.1 1-0.5 0.3-0.1 0.3 0 0.4 0.1 0.4 0.2 0.2 0.5 0.1 0.9-0.2 0.5 0 0.5 0.1 0.4 1.9 2 0.7-0.2 0.2-0.1 0.3-0.1 0.6 1.1 4.2 1.2 0.6 0 0.8 0 0.4-0.1 0.4 0 0.8 0.5 0.4 0.2 0.5 0.1 0.5-0.2 1.2 0.1 9.2 1.8 0.9 1.4 1.4 6.4-0.2 0.6-0.8 0.2-0.4 0-1.4 0.3-1.2 0.5-1.6 0.8-0.8 0.7-0.5 0.4-0.1 0.3-0.1 0.4 0 1.1 0 0.6 0.1 0.4 0.1 0.4 0.1 0.7 0 0.4 0 0.8-0.2 0.4-0.2 0.3-0.5 0.2-0.4 0.1-1.6 0.1-0.7 0.1-0.3 0.7-0.2 0.5-0.1 4.8 0.5 1.1 0.8 0.9 2.2 2 4 3.5z" id="UZSA" name="Samarkand">
  </path>
  <path d="M647.7 480.4l-0.4 0.4-0.3 0.3-0.1 0.5-0.1 0.9 0.4 2.8 1.5 1.4 6.4 2.2 4.3 0.2 2.1 0.9 0.2 0.2 0.4 0.8 0.3 0.3 0.4 0.1 0.9-0.2 0.3 0.1 0.5 0.8 0.1 1-0.6 5.2 0.3 1.7 0 0.1-0.8 0.6-0.9 0.4-3.9 0.1-0.6 0.2-0.7 0.3-0.3 0.2-0.3 0.2-0.4 0.4-0.3 0.5-0.1 0.5 0 0.6 0.4 1.6 0.3 2.4 1.3 2.4 0.1 0.3 0.1 0.3-0.1 0.4 0 0.4-0.1 0.4-0.1 0.4 0 0.4 0 0.3 0 0.4 0.1 0.3 0.1 0.4 0.2 0.7 0 0.3 0 0.4-0.2 0.5-0.2 0.6-0.6 0.8-0.2 0.6-0.2 0.5 0 1.2-0.1 0.3-0.1 0.2-0.4 0-0.3-0.2-1-1-0.2-0.2-0.3-0.2-0.3-0.1-0.8-0.3-0.8-0.1-0.8 0.1-0.7 0.1-0.7 0.4-0.5 0.4-0.4 0.3-0.2 0.4-3.2 6.1-0.6 0.8-0.9 0.9-0.5 0.4-0.8 0.5-2.1 0.5-0.4 1-0.6 0.9-1 1.1-1.9 1.6-0.3 0.4-0.4 0.9-0.3 1.2-0.5 3.4-0.5 1.6-0.1 0.4-0.7 0.7-5.9 4.8-3 1.7-0.6 0.2-1.9 0.3-0.5 0.3-0.4 0.6-0.9 1.3-0.5 1.4-0.2 0.8-0.3 0.8-0.4 0.8-0.3 0.7-6.5 6.1-0.4 0.5-0.4 1.2-0.2 2.6-0.3 0.9-0.9 1.7-0.3 0.2-2.1-2.4-1.4-0.9-1.5-0.6-0.8-0.1-2.9-0.3-1.4 0.5-1.6-0.1-1.6-0.5-4.8-2.2-0.3-0.2-2.1-2.4-1.5-2.6-0.5-0.4-2-0.1-3.4-1-2-1.6-0.1-0.2-0.2 0-1-0.8-1.5-0.8-3.5-0.6-1.2-0.6-0.9-1-1.2-1.1-1-0.3-1.2 0-1 0.3-0.6 0-1.5 0.6-0.7 0.5-0.9 0-7.7-1.1-4.1-1-1.2 0-0.1-0.1 0-0.4 0.2-0.2-11.8-8.1-7.8-5.6-0.8-1.2-6.3-5.8-0.3-0.1-1.9-0.3-1-0.7-0.7-0.3-2.8-2.2-0.8-0.8-1.8-0.7-2.2-0.1-1.2-0.9-0.7-0.9-3.6-2.9-0.9-0.3-0.8-0.6-1.1-0.4-7.4-5.2-7.4-7.3 4.7-5.2 2.5-1.7 7.3-3 2.9-1 8.8-3.2 0.3-0.2 0.2-0.3 0.2-0.6-0.1-0.3-0.1-0.4-0.2-0.3-1.7-2-0.4-0.6-0.2-0.6-0.1-0.3-0.1-0.3 0-0.4 0.1-0.4 0.3-0.5 0.5-0.7 4.1-4.4 0.3-0.3 0.4-0.2 0.6-0.1 0.5 0.1 0.6-0.2 0.7-0.6 5.3-5.3 2.5-1.9 5.2-1.2 1.1-0.7 22.6 0.6 0.6-0.2 1.2-0.6 1.1-0.8 0.2-0.3 0.2-0.3 0.1-0.3 0-0.4-0.1-1 0.1-0.4 0.1-0.3 0.4-0.3 0.6-0.1 1.7 0 0.5 0.1 0.3 0.1 0.3 0.2 0.2 0.2 0.2 0.3 0.1 0.3 0.6 2.2 0.1 0.4 0.3 0.5 0.6 0.8 2.7 2.8 1.6 1 1.4 1.1 0.1 0.3 0.2 0.4 0 1.1-0.1 1 0 0.5 0.1 0.5 0.1 0.8 0.2 0.4 0.4 0.3 3.5 0.9 1.9 0 0.8-0.2 1.2-0.8 5-2.5 0.3 0 7.6-1.8 1 0 1.4 0.8 3.1 2.5 0.9 0.5 0.7 0.2 0.4-0.1 4-1.6 0.5-0.5 1.7-2.6 0.3-0.4 0.4-0.3 0.9-0.5 0.9-0.3 0.7 0 4.2 0.7 4.5 0.9 1.1 0.2 1.1 2 0.2 1-0.3 1.9-0.1 1 0 0.6 0.2 0.4 0.3 0.2 0.4 0.2 0.4 0.1 0.7 0.2 5.9-0.2 0.6-0.2 0.3-0.1 0.3-0.2 0.2-0.3 0.1-0.4 0-0.3 0-0.4-0.1-0.7 0.1-0.3 2.8 0.1 12.7 3.2z" id="UZQA" name="Kashkadarya">
  </path>
  <path d="M664.3 500.1l0.9 0.9 6.8 1.1 1.4 0 4.1-1.4 0.7-0.4 0.7-0.2 0.8 0.1 0.9 0.3 0.4 0.2 0.8 0.8 0.9 0.2 0.9-0.4 0.9-0.6 0.4-0.1 0.4 0 0.4 0 0.5 0.1 0.8 1 1.8 4 1 1.4 0.5 0.9 0.6 1.3-0.1 1.5-0.5 1.2-0.6 0.9-0.8 0.7-0.9 0.5-1.3 0.3-0.9 0-0.6 0.3-0.2 1.5 0.2 0.7 0.3 0.6 0.2 0.6 0 0.8-0.3 0.4-1.3 1-0.5 1 0.2 1.2 0.7 2.6 0.1 1.3-0.2 3.9 0.2 1.5 0.4 0.9 1.3 2 0.3 1 0.1 2.2 0.1 0.9 0.6 1 2 2 2 3.6 0.9 0.9 2.7 1.6 4.3 3.8 1.2 2 0.3 2.6-0.9 4-1.3 3.7-2.1 3.1-0.6 1.3-0.4 1.2-0.3 1-0.4 0.9-0.5 0.4-0.3 0.2-0.8 0.2-2.5 0.4-1.6 0.5-1 1-2.2 6.8-1.6 3.1-3.9 5.4-2.8 2.8-2.7 3.4-2.3 4-1.5 4.1-0.2 2.8 1.1 5.3 0.1 2.8-0.2 2.4-0.6 2.2-1 2-0.3 1-0.2-1.2-0.6-0.9-1-0.6-1.1-0.3-1.9 0.1-0.6-0.1-0.6-0.3-1.2-0.8-0.6-0.2-0.6 0-1 0.3-0.6 0.1-0.3 0.3-0.3 0.7-0.4 0.6-0.6 0.2-0.9-0.7-1-2.8-1.2-0.6-1.1 0.3-1 0.7-1.7 1.8-1.1 0.8-1 0.6-1.2 0.3-1.3 0.1-1.3 0.3-2 1.3-1.2 0.2-1.2-0.4-0.6-1.1-0.4-1.2-0.5-1.1-1.1-1-2.4-0.9-1-0.7-0.5-1-0.9-2.9-0.7-0.6-1.1-0.3-2.1-1.6-1-0.4-2.5-0.1-4.9 1.2-6.9 0.3-0.6 0.2-1 0.9-0.6 0.2-1.4-0.1-0.7-0.1-3.5-1.5-1.2-0.1-1.4 0.1-0.9-0.4-0.1-0.3 0.3-0.4 0-0.7 0.3-0.5 1.3-1 1.4-0.8-0.1-0.5 0.2-0.4 0-1.7-0.6-2.5-2.2-1.5-0.2-0.6-0.1-1.3 0.2-1.3 0.5-5.7 0.3-2.7-0.3-1.7 0-1.5 0.5-2.8 0.8-2 0.9-1.3 0.9-0.9 0.6-1.5 0.8-1 2.4-1.3 0.5-0.5 0.3-1 0-1-0.4-0.9-0.9-1.1 0.3-0.2 0.9-1.7 0.3-0.9 0.2-2.6 0.4-1.2 0.4-0.5 6.5-6.1 0.3-0.7 0.4-0.8 0.3-0.8 0.2-0.8 0.5-1.4 0.9-1.3 0.4-0.6 0.5-0.3 1.9-0.3 0.6-0.2 3-1.7 5.9-4.8 0.7-0.7 0.1-0.4 0.5-1.6 0.5-3.4 0.3-1.2 0.4-0.9 0.3-0.4 1.9-1.6 1-1.1 0.6-0.9 0.4-1 2.1-0.5 0.8-0.5 0.5-0.4 0.9-0.9 0.6-0.8 3.2-6.1 0.2-0.4 0.4-0.3 0.5-0.4 0.7-0.4 0.7-0.1 0.8-0.1 0.8 0.1 0.8 0.3 0.3 0.1 0.3 0.2 0.2 0.2 1 1 0.3 0.2 0.4 0 0.1-0.2 0.1-0.3 0-1.2 0.2-0.5 0.2-0.6 0.6-0.8 0.2-0.6 0.2-0.5 0-0.4 0-0.3-0.2-0.7-0.1-0.4-0.1-0.3 0-0.4 0-0.3 0-0.4 0.1-0.4 0.1-0.4 0-0.4 0.1-0.4-0.1-0.3-0.1-0.3-1.3-2.4-0.3-2.4-0.4-1.6 0-0.6 0.1-0.5 0.3-0.5 0.4-0.4 0.3-0.2 0.3-0.2 0.7-0.3 0.6-0.2 3.9-0.1 0.9-0.4 0.8-0.6z" id="UZSU" name="Surkhandarya">
  </path>
  <path d="M365.1 184.2l5.6 9.7 2.7 2.4 14.3 4 0.8 0.5 0 0.7-0.3 0.9-14.4 27.3-13.6 26.1-2.9 6.9-1.2 14.8 0 0.9 0.1 0.7 6.1 11.2 1 2.2-0.2 0.4-0.6 0.7-11.4 6.4-1.2 1 0.1 0.9 0.4 1 22.7 31.3 15.1 21 0 1-11.9 5.7-2.8 0.9-0.8-0.2-0.8-0.4-0.2-0.3-6.3-10.1-9.1-10-3.1-2.4-2.4-1.4-2.5-1.1-10.2-2.5-2.8 0-1.1 0.2-1 0.5-0.8 0.7-0.8 1-2.1 4.1-0.9 0.7-1.4 0.1-1.3-0.5-0.3-0.2-0.8-0.4-0.6-2.1-0.7-1-2.8-3.1-1-0.6-3.1-0.6-1.2-0.5-1.6-1.5-1.9-2.1-0.6-0.4-0.7-0.3-1.4-0.3-12.5-11.4-1.7-1.9-1.4-2.5-0.9-2.8-0.6-1.1-0.8-0.5-2.6-0.1-1.1-0.3-0.9-0.6-0.8-0.9-1.4-2.7-0.6-1.8-1.5-2.2-0.4-1.2 0-3.2-0.1-1.5-0.8-0.6-2.6-0.3-2.7-0.6-0.5-0.3-1.2-0.9-0.8 0.1-0.3 0.2-1.1 0.9-2.7 1.9-1.1 0.5-1.4 0-0.8 0.2-0.4 0.3-0.1 0.3 0 0.3 0.1 0.3 0.7 1.3 0.1 0.7-0.7 1.6-0.5 0.6-0.1 0.1-0.4-0.6-0.8-1.2-1.6-1.4-3-1.1-2.4-0.9-0.1-0.1-1 0-1.8 0.1-0.7-0.3-0.6-1 0.1-1 0.6-0.7 0.9-0.3 3.2-1.2-0.2-2.8-1-3.5 0.2-1.8 0.3-1.5 0.8-0.7 1.1-0.4 0.9-0.7 0.2-1.2-0.7-0.9-0.8-0.5-0.4-0.2-0.5-0.2-0.4-0.2-1.5-0.5-1.8-1.7-1.5-2.3-0.1-0.1-0.1-0.2-1.5-1.6-2.4-0.3-2.3 0.3-4.6-0.4-7.4 1.2-0.9 0.1-0.2 0-0.6 0.1-0.1 0-2 0.3-2.8 0-1.3-0.5-2.1-2.3-1.3-0.5-2.7-0.3-1.5-0.8-0.7-1.3-0.6-5.5-0.5-1.3-0.8-1.2-3.3-3.6-0.1 0-1.2-0.8-1.4 0.2-1.5 0.7-0.2 0.1-1.3 0.3-1.6 0.1-2.4-0.4-3.7-1.7-3.5-3.3-10.9-12.9-0.5-0.6-1.3-0.7-1 1.6-0.7 6.1-1 1.9-0.2 0.2-2.2 0.7-2.7-0.2-2.7-0.6-4.7-1.9-1-0.4-1.3-0.1-1 0.3-2.8 1.8-2 0.8-1 0.8-0.5 1 0.3 1.4 1 0.9 6.7 3.1 1.8 1.5 1.7 2.5 1.4 3.4 3.9 6.4 2.2 2.5 0.6 0.6 0.2 0.6-0.2 0.6-0.6 0.4-0.3 0-3.2 0.5-0.8-0.2-0.1-0.2-0.5-0.8 0-1.1 0.3-1.2 0.1-1.3-0.2-1.2-0.4-1.5-1.3-1.7-1.8-1.3-5.2-2.5-0.1-0.1-1.1-0.1-0.5 0-0.5 0.1-1.9 0.8-0.8 0.1-0.9-0.5-1.2-1.8-0.8-0.7-1-0.4-1.2 0-1.1 0.2-1 0.4-0.6 0.7 0 0.1-0.2 0.4-0.2 0.4-1.4 1.5-0.7 0.4-0.7 0.3-0.9 0.8 0.2 1.2 0.1 0.7 1.1 2.4 0.1 1.1-0.5 1.7-2.1 5-0.8 0.8-0.7 0.2-0.8 0.3-0.5 0.2-0.5 0.9 0.4 1.1 0.7 0.8 0.2 0.7-1.2 0.8-1 0.3-0.1 0-2.7-0.2-0.8 0-1.1 0.2-2.9 1.5-1.3 0.2-0.5 0.2-0.7 0.1-7.5-1.3-5 0.2-5 2.4-4.3 4.2-2.9 5.5-2 3-2.2 1.6-1.1 0.6-1.7 0.8-2.3 1-1.5 2.1 0 2.8 1 4.7 0.2 0.9 0 0.5-0.1 2.1-0.4 2.3-0.1 2.3 0.9 2.5 1.2 1.9 0.6 1.9 0.2 2 0 2.5 0.2 2 0.7 2 0.2 0.3 0.9 1.4 1.1 1.3 0.8 0.6 0.8 0.4 1 0.2 1.6 0.4 0.3 0.2 0.1 0.1-0.1 0.5-0.6 0.7-1.1 0.8-2.5 1.3-1 1.2-1.6 3-0.6 0.3-0.5 0.3-4.8-1-1.7-0.4-5-1-11.8-0.7-1.9-0.1-11-0.6-9.9-0.5-5.7-0.3-1.7-0.1 0-0.3 0-164 0-59.3 0-44 36.8-11.8 15-4.9 28.5-9.2 4.7-1.4 6.6-2.1 6.6-2 6.7-2 3-1 3.1-0.9 3-0.9 3.1-0.9 3.2-0.9 3.2-1 3.2-0.9 3.2-0.9 4.3-1.3 1.2 0.2 1.5 0.6 0.3 0.2-0.4 0.6-0.4 0.5-0.1 0.6-0.1 1.2-0.3 1.4-0.3 0.7-0.2 0.7-0.1 0.5 0 1.1-0.2 1.3 0 0.6 0 0.1 0 1.2-0.1 0.3-0.8 0.6-0.4 0.4-1.3 1.9-0.5 0.3-0.2 0.2-0.9 0.7-0.7 1.5-2.1 2.9-0.2 0.5-0.1 0.6-0.2 1.8 0.1 1.3-0.3 0.9-0.9 1.5-0.4 2.1-0.4 3.3-0.8 2.1-1.6 2-0.8 1.1 0 0.2-0.3 0.7-0.3 1.6 0 1-0.7 2-0.3 1.9-1 1.3-1.4 2.8 0 0.5-0.4 1-0.3 1.4-0.1 1.7 0.4 3.8 0.5 2.3 1 2.6 1.3 3.1 1.9 4.4 0.2 2-0.4 2.4-0.5 0.8-0.8-0.2-0.7-0.1-0.7 0.5-0.9 1.4-0.4 1-0.2 1.4 0.1 3.4 0.5 1.4 0.8 0.8 0.9 0.3 1.4 0.2 2.2 0 1 0 2.8-1.5 3.5-4.5 2.2-4.8 1.1-6.6 1.8-7.3-0.9-1.2 1.7 0 0.9-1.3 0.7-2.1-0.1-2.8-0.7-1.6-1.6-1.5-0.6-1.4 0.1-1.1 1-1.5 0.2-1.8-0.2-1.2-1-1.1-1.2-0.2 5.1-4.9 1.4-2.3 0.7-2 0-1.4-1-4.2-1.2-2.9-0.6-1.6 0-2.9 0.4-3.9 1.3-6.4 0.5-1.6 2.1-2 1.7 1.1 5.2 3.5 6.7 4.6 4.6 3.1 3.5 2.3 9.1 6.2 9.9 6.6 5.3 3.6 60.9 45 12.9 9.6 1.2 0.8 5.1 3.8 0.2 1.6 0.5 1.7 3.1 5.1 6.1 6.6 2.9 3.1 2.9 3.2 3.7 4.2 3.1 3.6 3 3.5 3.1 3.5 3 3.5 3 3.5 3 3.4 2.9 3.5 3 3.4 4 4.6 1.1 0.4 1 0.5 0.2 0z" id="UZQR" name="Karakalpakstan">
  </path>
  <path d="M615.8 351.1l0 0.2-6.5 2.7-0.4 1.1-0.7 0.8 0.9 9.8 0.1 0.4 0.1 0.3 0.3 0.6 0.5 0.6 0.3 0.2 0.7 0.4 4.8 1.3 0.3 0.3 0.2 0.2 0.1 0.4 0 0.5 0 0.7-0.1 1.2 0 1.2 0.1 0.3 0.4 1.2 1.2 2.1-1.5 3.8-8.1 15.8-1-1-0.6-0.8-0.2-0.4-0.1-0.3-0.1-0.2 0-0.3 0.3-1.1 0.1-0.7-0.1-0.3-0.2-0.3-1.8-2.1-1.5-1.3-0.6-0.3-0.4-0.1-0.5 0.2-3.9 2.6-1.2 0.6-1 0.1-0.9-0.1-0.9-0.4-1-0.5-1.1-0.8-0.8-0.4-0.7-0.1-0.7 0.2-0.7 0.5-0.6 0.7-0.5 0.8-0.4 0.9-0.7 1.9-0.2 1.1 0 1.1 0.5 1.3 0.4 0.6 0.2 0.5 0 0.6-0.5 0.8-0.3 0.3-1.1 0.5-0.2 0.4-0.1 0.6 0.6 1.6 0.2 2.5-0.4 1.5-0.7 1.6 0 0.4 0.1 0.5 0.2 0.4 0.8 0.7-0.1 0.6-0.2 0.5-1.4 1.9-0.4 0.9-0.3 0.9-0.5 1.6-1.3 3.2-0.1 0.6 0.1 0.3 0.2 0.2 0.4 0 1-0.2 0.4 0 0.6 0.1 0.3 0.2 0.3 0.4 0.2 0.4 0 0.6-0.3 0.5-0.5 0.6-3.4 3.2-0.6 0.3-11.4 2.5-2.3-0.5-2.3-1.4-1.1 0.3-1-0.5-1-0.8-2.2-0.8-0.8-0.9-1.4-1.9-0.5-0.1-0.2-0.1-1-0.2-4.9-2.1-0.7-0.1-0.4 0.2-0.3 0.3-0.3 0.7-0.1 0.4-0.1 0.4 0 0.8-0.1 1.4-0.1 0.4-0.1 0.3-0.1 0.2-0.1 0.4-1.4 2 0 0.5 0.2 0.2 0.3 0.1 0.4 0.1 0.3 0.1 0.2 0.3 0.1 0.3-0.1 0.4-0.2 0.6-0.8 1.8-0.2 0.4-0.9 3.6-0.3 0.8-0.5 0.3-0.7 0.2-1.5 0.1-1.5-0.3-1.5-0.7-1.8-1-0.4 0-0.3 0.1-0.3 0.5-0.2 0.4-0.2 1.2-0.4 0.4-0.4 0.3-3.2 0.9-2.6 0.3-0.5 0.2-0.3 0.1-0.3 0.3-0.1 0.3 0.4 0.9 1.6 1.8 1.1 0.9 0.4 0.5 0.4 0.6 1.6 5.8 0.1 0.6-0.1 1-0.1 0.6-0.1 0.6-1.6 3.5 0 0.4 0.6 2.1 2.9 5.6-1.1 0.7-5.2 1.2-0.1-1.9-0.1-0.5-0.5-1.8-0.4-0.8-0.2-0.4-0.8-1.1-1-1-0.8-0.4-1.2-0.5-1.1-0.6-0.4-1.4-0.2-1.5 0-1.1-0.4-1.6-1-1.6-6.3-3-0.5-0.8-0.8-0.1-2.3 1-1 0-0.8-0.4-0.1-0.6-0.3-0.6-0.1-0.4-2.5-1.4-1.5-1-3.8-5.3-0.8-1.7 0.7-1.8 0.9-1.9 1.7-2.2 0.2-0.3 0.4-0.4 0.4-0.9 3.3-1.5 0.9-0.7 0.9-0.9 0.8-1 2.5-5.2 0.8-0.6 0.5-0.1 0.4-0.3 0.3-0.2 0.4-0.1 1.6-0.2 0-0.2-0.2-0.5-0.8-1-1.6-1.6-0.6-1-0.1-0.3 0.1-0.1 0.2-0.1 0.5-0.5 0.9-2.6-1.3-1.3-0.3-1.4 0-0.6 0.1-0.6 0.1-0.7 0.5-0.6 0.9-0.5 1.8-0.3 1.2 0 1.1 0.3 1 0.9 1.2 0.8 1.2 0.4 6.2 0.1 0.6-1.2 1.2-3.8 1-1 1.1-1.3 1.4-4.4 0.1-0.9 0.6-0.9 0.4-0.4 0.5-0.1 0.6 0 2.7 0.6 0.7 0 0.1-0.8-0.2-0.8-0.1-1.4 0-1.7 0.1-1.9 0.2-1.8 1.3-4.3-2.6 0.7-16-1.1-5.3-1.3-1.8-1-1.8-1.5-0.8-2.1-0.5-1.9-1.1-7-0.5-1.7-0.6-0.1-1.7 2.4-1.7 0.8-2.3 0.5-7 0.3-1.8 0.7-1 0.5-1.6 6.3-1.2 1.1-14.4-1.7-2.2-0.8-0.8-1.6 0-4.6-0.3-2.4-1.1-1.6-1-0.9-1-0.2-1.1 0.3-1.1 0.9-0.9 1.4-3.2 6.6-3.7 5.6-6.4 2.2 0.1-1.3-1.9-2-1.2-2.1-16-9.9-8.1-4.6-7-2.7-4.7-1.1-1.3-0.7-7.1-12.7-8.9-10.5-1.3-2.3-1.7-3.9-4.5-0.1-18.8 7.1-22.7-31.3-0.4-1-0.1-0.9 1.2-1 11.4-6.4 0.6-0.7 0.2-0.4-1-2.2-6.1-11.2-0.1-0.7 0-0.9 1.2-14.8 2.9-6.9 13.6-26.1 14.4-27.3 0.3-0.9 0-0.7-0.8-0.5-14.3-4-2.7-2.4-5.6-9.7 4.3-0.8 1.9-0.4 1.9-0.3 1.9-0.4 1.8-0.3 3-0.6 3-0.5 3-0.6 3-0.5 4.8-0.8 4.9-0.8 4.8-0.8 4.8-0.8 4.9-0.8 4.8-0.8 4.9-0.8 4.8-0.8 8.1 0.8 8.1 0.7 8 0.8 8.1 0.7 7.4 0.7 7.3 0.6 7.4 0.7 7.3 0.7 2.9 0.2 0.9-0.2 1-0.3 5.3-3 5.1-2.8 5.3-2.9 5.1-2.9 1-0.4 0.9-0.3 0.9 0.1 0.8 0.1 0.9 0.8 0.9 0.8 5.7 7.5 5.7 7.4 2.7 2.8 2.6 2.8 5.5 3.5 5.4 3.4 1.1 0.9 1 1 4.5 9.3 2.9 5.9 4 8.2 3.4 7.1 0.4 0 0.5 0.1 0.5-0.3 0.3 0.8 1.1-0.5 0.5-0.3 3.1-1.4 2.2-1.1 2.2-1 0.9-0.5 4.4-2-1.1 15.9-1.1 17.9-0.1 1.9-0.2 1.9-0.2 0.6-0.3 0.6-0.6 0.3-0.6 0.2-0.2 0.5-0.2 0.5 0 2.2-0.1 11.8-0.2 13.9 0 0.4 0.1 0.4 0 0.2 0 0.8-0.1 0.3 0 0.2 0 0.2 0 0.8 0.1 1.7 1.2 0.2 1 0.1 0.3 0 0.5 0.1 1.6 0.2 0.9 0.1 2.3 0.2 3.3 0.4 1.3 0.2 3.3 0.4 0.9 0.1 4.9 0.6 2.8 0.3 0.6 0.1 0.2 0 1.8 0.3 0.3 2.1 0.9 9 1.1 5.9 0.1 1.1 0.4 4.8 0 0.4 0.1 0.3 0.5 6.2 0.7 8.7 0.3 3.2 0 0.4 0.1 1.8 0.3 1.9 0.8 0.1 1.7 0.1 1.1 0.1 0.7 3.3 1.2 1.5 1.2 1.4 1.3 0.4z" id="UZNW" name="Navoi">
  </path>
  <path d="M265.1 299.9l0.5-0.6 0.7-1.6-0.1-0.7-0.7-1.3-0.1-0.3 0-0.3 0.1-0.3 0.4-0.3 0.8-0.2 1.4 0 1.1-0.5 2.7-1.9 1.1-0.9 0.3-0.2 0.8-0.1 1.2 0.9 0.5 0.3 2.7 0.6 2.6 0.3 0.8 0.6 0.1 1.5 0 3.2 0.4 1.2 1.5 2.2 0.6 1.8 1.4 2.7 0.8 0.9 0.9 0.6 1.1 0.3 2.6 0.1 0.8 0.5 0.6 1.1 0.9 2.8 1.4 2.5 1.7 1.9 12.5 11.4 1.4 0.3 0.7 0.3 0.6 0.4 1.9 2.1 1.6 1.5 1.2 0.5 3.1 0.6 1 0.6 2.8 3.1 0.7 1 0.6 2.1 0.8 0.4 0.3 0.2 1.3 0.5 1.4-0.1 0.9-0.7 2.1-4.1 0.8-1 0.8-0.7 1-0.5 1.1-0.2 2.8 0 10.2 2.5 2.5 1.1 2.4 1.4 3.1 2.4 9.1 10 6.3 10.1 0.2 0.3 0.8 0.4 0.8 0.2 2.8-0.9 8.6 9.8 1.7 2.7 0.7 2.3-2.8 6-10.3 12.9-0.6-0.9-1.1-0.8-1.8-2.5-0.7-1.5-1.1-4.3-0.6-0.9-1.8-1.9-0.5-0.9-0.2-3.1-0.5-0.8-0.3-1.2-0.3-0.4-1.5-5.1-0.2-0.7 0.6-1.2-0.2-0.5-0.1-1.6-0.1-0.6-0.1-1.1 0.3-1.9-0.3-0.4-0.5-0.3-0.1-1.1-0.2-0.3 0-0.2-0.3-0.9-0.4-0.6-0.3-0.3-3.2-5.4-1-1.1-11.9-8.8-1.1-0.5-0.3-0.6-0.2 0.2-0.2 0.1-2.8-1.2-5.1-1.4-2-0.2-1.2 0.6-0.7 1.5-0.5 2.5-1.3 0.7-1 2.2-1.5 1.7-1.8 0.9-2.1 0.1-2.1-0.9-5.5-3.9-0.3 0-0.2-0.4-0.2 0.3 0 0.1-0.2 0-0.3 0-0.6-1.4 0-0.7-0.2-0.1-0.1 0.1-0.2-0.1 0-0.2-0.2 0.9-0.5-0.7 0.1-0.7-0.1 0-0.3 0.3-0.1-0.1-0.1-0.5-0.3 0.7 0.1 0 0 2.6-0.2 0-0.4-0.3-0.6-0.3-0.3-0.2 0-0.7-0.1 0.1-2.9-0.4-6.8-0.8-7 0.2-5.5 2.3-0.1 0-0.5 0-3 0.5-1.1 0-0.8-0.3-3.8-2.3-3.3-2.9-3.5-2.5-1.8-0.2-0.7-0.3-3.2-2.3-2.1-1.8-1.9-1.3-0.9-1.5 0-0.5 0-0.5-0.1-0.6 0.8-3 0.7-2.6 0-0.4 1-0.8 0.3 0.2 0.7-0.4 0-0.4 0.2-0.1-0.1-0.3 0.2-0.2 0.6-0.6 0.3 0 0.5 0.2 0.2-0.1-0.2-0.5 0-0.2 0.3-0.1 0-0.2-0.3-0.8 0.2-0.3-0.2-0.6-0.1-0.8-0.7-1.4-0.7-0.8-1.6-1.7-1.2-1.9-0.9-1.4-0.3-1.3-0.6-1.2 0.4-0.5 0.5-0.3 0.1-0.5 1.4-0.9 1.6-0.2 2 0.6 1.8 1.2 1.1 0.5 0.6-0.1 0.4 0.1 1-0.1 0.9 0.7 0.9 0.3 0.7-0.1 0.4 0.2 0.4-0.7 0-0.5-0.6-0.8-1.3-1.1-1.3-1.5-1.5-0.6-1.2-0.3-2.5-1.5-0.6-0.7-0.4-0.8-0.3-0.4z" id="UZXO" name="Khorezm">
  </path>
  <path d="M529.9 468.5l-2.5 1.9-5.3 5.3-0.7 0.6-0.6 0.2-0.5-0.1-0.6 0.1-0.4 0.2-0.3 0.3-4.1 4.4-0.5 0.7-0.3 0.5-0.1 0.4 0 0.4 0.1 0.3 0.1 0.3 0.2 0.6 0.4 0.6 1.7 2 0.2 0.3 0.1 0.4 0.1 0.3-0.2 0.6-0.2 0.3-0.3 0.2-8.8 3.2-2.9 1-7.3 3-2.5 1.7-4.7 5.2-1.6-1.5-1 0.3-1.2-0.7-1.6 0.2-1.8 0.9-0.8 0-2.8 0.3-0.5-0.6-4.1-2.5-4.6-3.2-0.6-0.6-11.7-8.3-0.7-0.6-3-2.1-0.6-3.3-6.9-4.5-0.7-0.5-0.5-0.8-3.4-3.2-2.8-2-0.2-0.9-3.3-2-2.9-2-2.2-1.6-4.9-3.2-11.8-8.4-4.2-3-1.2-0.8-7.2-5.2-0.8-0.5-5.8-4.3-2.7-2.7-0.5-0.4-3.8-4.8-0.6-1.8-0.9-3.9-0.2-1.6 0.2-1.5 0.5-1.2 0.3-1.3-0.2-1.5-1.7-3.5-0.2-1.4 0-1.9-0.2-1.4-0.5-1.2-1.3-2.8-0.3-1.3-0.2-2.9-0.2-0.2 0-0.4-1-0.4-2.2-1.3-1.4-1.5-1.4-0.6-1.5-1-0.4-0.7 10.3-12.9 2.8-6-0.7-2.3-1.7-2.7-8.6-9.8 11.9-5.7 0-1-15.1-21 18.8-7.1 4.5 0.1 1.7 3.9 1.3 2.3 8.9 10.5 7.1 12.7 1.3 0.7 4.7 1.1 7 2.7 8.1 4.6 16 9.9 1.2 2.1 1.9 2-0.1 1.3 6.4-2.2 3.7-5.6 3.2-6.6 0.9-1.4 1.1-0.9 1.1-0.3 1 0.2 1 0.9 1.1 1.6 0.3 2.4 0 4.6 0.8 1.6 2.2 0.8 14.4 1.7 1.2-1.1 1.6-6.3 1-0.5 1.8-0.7 7-0.3 2.3-0.5 1.7-0.8 1.7-2.4 0.6 0.1 0.5 1.7 1.1 7 0.5 1.9 0.8 2.1 1.8 1.5 1.8 1 5.3 1.3 16 1.1 2.6-0.7-1.3 4.3-0.2 1.8-0.1 1.9 0 1.7 0.1 1.4 0.2 0.8-0.1 0.8-0.7 0-2.7-0.6-0.6 0-0.5 0.1-0.4 0.4-0.6 0.9-0.1 0.9-1.4 4.4-1.1 1.3-1 1-1.2 3.8-0.6 1.2-6.2-0.1-1.2-0.4-1.2-0.8-1-0.9-1.1-0.3-1.2 0-1.8 0.3-0.9 0.5-0.5 0.6-0.1 0.7-0.1 0.6 0 0.6 0.3 1.4 1.3 1.3-0.9 2.6-0.5 0.5-0.2 0.1-0.1 0.1 0.1 0.3 0.6 1 1.6 1.6 0.8 1 0.2 0.5 0 0.2-1.6 0.2-0.4 0.1-0.3 0.2-0.4 0.3-0.5 0.1-0.8 0.6-2.5 5.2-0.8 1-0.9 0.9-0.9 0.7-3.3 1.5-0.4 0.9-0.4 0.4-0.2 0.3-1.7 2.2-0.9 1.9-0.7 1.8 0.8 1.7 3.8 5.3 1.5 1 2.5 1.4 0.1 0.4 0.3 0.6 0.1 0.6 0.8 0.4 1 0 2.3-1 0.8 0.1 0.5 0.8 6.3 3 1 1.6 0.4 1.6 0 1.1 0.2 1.5 0.4 1.4 1.1 0.6 1.2 0.5 0.8 0.4 1 1 0.8 1.1 0.2 0.4 0.4 0.8 0.5 1.8 0.1 0.5 0.1 1.9z" id="UZBU" name="Bukhoro">
  </path>
  <path d="M747.6 346.4l-1.6-0.4-0.7-1.2 0.3-0.7 0-0.2-0.9 0.8-1.3-1.5-0.4-0.8-0.1-0.8-0.9 0.5-0.1-0.2 1.4-3.4 0.4-2.2 2.8-2.9 1.8 0 1.2 0.9 1.7 0.2 1.9 1.3 0.2 1.1-0.8 1.4 0.7 0.5 0.6 0.8-0.4 0.7 0.5 0.5-2 1-2.6 2.5-1.7 2.1z" id="UZTK" name="Tashkent">
  </path>
 </g>
 <g id="points">
  <circle class="37.60382601261503|56.85706386088194" cx="90.9" cy="594.6" id="0">
  </circle>
  <circle class="40.95325463490545|65.43100246970988" cx="545.5" cy="365.1" id="1">
  </circle>
  <circle class="45.14004041276847|72.29015335677224" cx="909.1" cy="61.2" id="2">
  </circle>
 </g>
 <g id="label_points">
  <circle class="Ferghana" cx="868.4" cy="397.4" id="UZFA">
  </circle>
  <circle class="Tashkent" cx="777" cy="347.8" id="UZTO">
  </circle>
  <circle class="Namangan" cx="856.3" cy="368" id="UZNG">
  </circle>
  <circle class="Andijon" cx="912.5" cy="373.8" id="UZAN">
  </circle>
  <circle class="Sirdaryo" cx="725.7" cy="399.5" id="UZSI">
  </circle>
  <circle class="Jizzakh" cx="658.1" cy="397.9" id="UZJI">
  </circle>
  <circle class="Samarkand" cx="601.1" cy="444" id="UZSA">
  </circle>
  <circle class="Kashkadarya" cx="588.7" cy="516.4" id="UZQA">
  </circle>
  <circle class="Surkhandarya" cx="652.5" cy="572.1" id="UZSU">
  </circle>
  <circle class="Karakalpakstan" cx="226.9" cy="166.6" id="UZQR">
  </circle>
  <circle class="Navoi" cx="497.3" cy="274.3" id="UZNW">
  </circle>
  <circle class="Khorezm" cx="285.3" cy="325.7" id="UZXO">
  </circle>
  <circle class="Bukhoro" cx="460.5" cy="429.7" id="UZBU">
  </circle>
  <circle class="Tashkent" cx="747.8" cy="339.4" id="UZTK">
  </circle>
 </g>
</svg>